<?xml version="1.0" encoding="UTF-8"?>
<!DOCTYPE svg PUBLIC "-//W3C//DTD SVG 1.1//EN" "http://www.w3.org/Graphics/SVG/1.1/DTD/svg11.dtd">
<svg xmlns="http://www.w3.org/2000/svg" version="1.1" width="380px" height="400px" style="shape-rendering:geometricPrecision; text-rendering:geometricPrecision; image-rendering:optimizeQuality; fill-rule:evenodd; clip-rule:evenodd" xmlns:xlink="http://www.w3.org/1999/xlink">
<g><path style="opacity:0.791" fill="#8d9091" d="M 171.5,-0.5 C 183.5,-0.5 195.5,-0.5 207.5,-0.5C 209.833,0.166667 212.167,0.833333 214.5,1.5C 197.83,0.261642 181.163,0.261642 164.5,1.5C 166.833,0.833333 169.167,0.166667 171.5,-0.5 Z"/></g>
<g><path style="opacity:1" fill="#f7ea15" d="M 169.5,4.5 C 183.851,4.31958 198.184,4.65292 212.5,5.5C 274.705,14.3578 321.538,46.0245 353,100.5C 362.892,118.75 369.392,138.084 372.5,158.5C 374.654,176.464 374.988,194.464 373.5,212.5C 368.291,252.246 352.291,286.913 325.5,316.5C 313.178,329.643 299.178,340.809 283.5,350C 281.527,350.495 279.527,350.662 277.5,350.5C 276.833,350.5 276.167,350.5 275.5,350.5C 275.5,345.5 275.5,340.5 275.5,335.5C 328.735,295.313 350.235,241.98 340,175.5C 324.009,113.175 284.842,73.6748 222.5,57C 150.814,45.5387 95.3136,70.0387 56,130.5C 29.5949,179.712 28.7616,229.379 53.5,279.5C 52.2869,282.637 50.7869,285.637 49,288.5C 50.4139,281.978 48.4139,276.644 43,272.5C 40.729,275.12 40.0623,278.12 41,281.5C 43.202,284.663 45.702,287.497 48.5,290C 46.0446,289.749 43.5446,289.249 41,288.5C 38.3383,289.95 38.5049,291.783 41.5,294C 44.7699,294.995 48.1033,295.828 51.5,296.5C 52.8793,297.863 52.7126,298.863 51,299.5C 43.3327,297.518 42.166,299.018 47.5,304C 51.5837,303.838 55.0837,305.005 58,307.5C 58.4317,308.6 57.9317,309.267 56.5,309.5C 54.2178,308.777 51.8845,308.443 49.5,308.5C 49.5,309.5 49.5,310.5 49.5,311.5C 47.8333,310.5 46.5,309.167 45.5,307.5C 7.69771,259.945 -4.80229,206.278 8,146.5C 25.2292,83.5999 64.0626,39.7666 124.5,15C 139.032,9.54605 154.032,6.04605 169.5,4.5 Z"/></g>
<g><path style="opacity:1" fill="#373438" d="M 214.5,1.5 C 281.404,12.0202 330.238,47.3535 361,107.5C 370.355,128.373 376.522,150.04 379.5,172.5C 379.5,184.167 379.5,195.833 379.5,207.5C 375.539,239.681 364.705,269.348 347,296.5C 341.386,304.945 334.886,312.612 327.5,319.5C 327.715,317.821 327.048,316.821 325.5,316.5C 352.291,286.913 368.291,252.246 373.5,212.5C 374.29,211.391 374.79,210.058 375,208.5C 375.667,195.833 375.667,183.167 375,170.5C 374.295,166.335 373.461,162.335 372.5,158.5C 369.392,138.084 362.892,118.75 353,100.5C 321.538,46.0245 274.705,14.3578 212.5,5.5C 211.391,4.71003 210.058,4.21003 208.5,4C 195.327,3.17312 182.327,3.33979 169.5,4.5C 154.032,6.04605 139.032,9.54605 124.5,15C 64.0626,39.7666 25.2292,83.5999 8,146.5C -4.80229,206.278 7.69771,259.945 45.5,307.5C 44.4271,309.347 44.4271,311.347 45.5,313.5C 19.8612,283.542 4.52788,248.875 -0.5,209.5C -0.5,196.167 -0.5,182.833 -0.5,169.5C 9.93198,101.123 45.5986,50.6226 106.5,18C 124.889,9.14771 144.222,3.64771 164.5,1.5C 181.163,0.261642 197.83,0.261642 214.5,1.5 Z"/></g>
<g><path style="opacity:1" fill="#26232b" d="M 299.5,73.5 C 298.167,73.5 296.833,73.5 295.5,73.5C 295.808,75.924 295.474,78.2573 294.5,80.5C 294.167,79.1667 293.833,77.8333 293.5,76.5C 293.837,73.8236 294.17,71.157 294.5,68.5C 296.773,69.7353 298.606,69.4019 300,67.5C 299.667,65.1667 299.333,62.8333 299,60.5C 306.932,66.428 314.265,73.0947 321,80.5C 320.98,83.9877 319.814,84.321 317.5,81.5C 315.833,82.5 314.5,83.8333 313.5,85.5C 315.395,87.2882 317.062,89.2882 318.5,91.5C 319.317,86.1571 322.151,84.4905 327,86.5C 327.459,93.5282 324.292,95.8616 317.5,93.5C 317.167,94 316.833,94.5 316.5,95C 322.511,100.438 326.844,99.2717 329.5,91.5C 336.046,99.4281 341.712,107.928 346.5,117C 345.874,117.75 345.374,118.584 345,119.5C 344.275,117.842 343.108,117.342 341.5,118C 337.916,120.041 334.416,122.208 331,124.5C 330.219,123.056 330.386,121.723 331.5,120.5C 333.547,119.815 335.214,118.649 336.5,117C 335.968,114.98 334.635,114.147 332.5,114.5C 332.116,112.335 332.783,110.668 334.5,109.5C 336.531,111.537 338.197,113.871 339.5,116.5C 341.283,115.652 341.783,114.319 341,112.5C 339.192,109.562 337.692,106.562 336.5,103.5C 331.687,105.496 327.187,108.162 323,111.5C 322.289,109.633 322.789,108.133 324.5,107C 327.438,105.192 330.438,103.692 333.5,102.5C 333.756,100.088 332.756,98.4209 330.5,97.5C 326.253,99.5821 322.419,102.249 319,105.5C 318.405,104.101 318.572,102.768 319.5,101.5C 318.24,100.618 317.074,99.6184 316,98.5C 315.818,95.7737 315.318,93.1071 314.5,90.5C 312.867,88.497 310.867,87.1637 308.5,86.5C 308.799,88.604 308.466,90.604 307.5,92.5C 307.167,92.1667 306.833,91.8333 306.5,91.5C 307.167,88.1667 307.833,84.8333 308.5,81.5C 309.868,80.4063 311.035,80.7397 312,82.5C 315.16,79.9259 315.16,77.2592 312,74.5C 311.282,73.5494 310.449,73.3828 309.5,74C 306.784,77.2609 303.951,80.4276 301,83.5C 299.672,81.9775 299.838,80.3108 301.5,78.5C 300.05,77.1502 299.383,75.4835 299.5,73.5 Z"/></g>
<g><path style="opacity:1" fill="#2a2933" d="M 77.5,90.5 C 78.5,90.5 79.5,90.5 80.5,90.5C 80.5,91.5 80.5,92.5 80.5,93.5C 79.5,93.5 78.5,93.5 77.5,93.5C 77.5,92.5 77.5,91.5 77.5,90.5 Z"/></g>
<g><path style="opacity:1" fill="#262231" d="M 67.5,87.5 C 68.5417,86.2089 69.7083,86.2089 71,87.5C 71.7112,89.3668 71.2112,90.8668 69.5,92C 66.366,92.7901 63.366,92.4568 60.5,91C 63.146,90.5026 65.8127,90.3359 68.5,90.5C 68.7373,89.209 68.404,88.209 67.5,87.5 Z"/></g>
<g><path style="opacity:1" fill="#dbcf34" d="M 321.5,88.5 C 322.833,88.5 324.167,88.5 325.5,88.5C 325.616,91.9103 323.95,93.2436 320.5,92.5C 320.433,91.0413 320.766,89.7079 321.5,88.5 Z"/></g>
<g><path style="opacity:1" fill="#25222b" d="M 84.5,58.5 C 87.2763,58.0889 87.943,58.9223 86.5,61C 87.1667,62.3333 87.8333,63.6667 88.5,65C 87.0218,66.4782 85.5218,67.9782 84,69.5C 83.6924,73.3665 85.3591,74.3665 89,72.5C 88.9813,70.8925 88.8146,69.2259 88.5,67.5C 89.8333,67.5 91.1667,67.5 92.5,67.5C 93.4615,69.8023 94.6282,71.8023 96,73.5C 93.5809,70.6999 91.4142,70.8666 89.5,74C 87.1667,74.6667 84.8333,74.6667 82.5,74C 81.1955,73.196 80.5288,72.0293 80.5,70.5C 81.4412,67.8924 83.1079,65.8924 85.5,64.5C 85.1667,63.5 84.5,62.8333 83.5,62.5C 80.7587,64.9528 77.9254,67.2861 75,69.5C 74.3333,70.5 74.3333,71.5 75,72.5C 78.2041,75.3688 81.0374,78.5354 83.5,82C 83,82.1667 82.5,82.3333 82,82.5C 78.5471,80.0505 75.3805,77.2171 72.5,74C 70.8374,73.7351 69.3374,74.2351 68,75.5C 67.3333,76.1667 67.3333,76.8333 68,77.5C 71,80.1667 74,82.8333 77,85.5C 77.5908,86.4835 77.2575,87.1501 76,87.5C 73.7017,86.0389 71.5351,84.3722 69.5,82.5C 68.1667,83.1667 67.1667,84.1667 66.5,85.5C 65.277,86.6139 63.9437,86.7805 62.5,86C 63.6667,84.8333 64.8333,83.6667 66,82.5C 66.7494,81.365 66.5827,80.365 65.5,79.5C 60.5438,82.9256 57.0438,87.2589 55,92.5C 58.5,95.3333 62,98.1667 65.5,101C 64.1667,101.667 62.8333,101.667 61.5,101C 58.5372,99.0394 55.8706,96.706 53.5,94C 52.6683,93.3123 52.0016,93.479 51.5,94.5C 49.876,95.8689 49.376,97.5355 50,99.5C 53.7641,101.632 57.2641,104.132 60.5,107C 58.1913,107.756 56.1913,107.256 54.5,105.5C 53.5853,106.328 52.9186,107.328 52.5,108.5C 57.2252,116.307 54.8918,119.474 45.5,118C 47.8127,117.338 50.146,116.838 52.5,116.5C 53.4015,112.759 52.0681,110.759 48.5,110.5C 48.5,111.833 48.5,113.167 48.5,114.5C 47.5,114.5 46.5,114.5 45.5,114.5C 45.8076,112.076 45.4742,109.743 44.5,107.5C 43.0019,109.159 41.5019,110.825 40,112.5C 38.6501,108.953 40.1501,106.953 44.5,106.5C 46.4809,106.437 48.1476,107.104 49.5,108.5C 52.1192,106.423 52.1192,104.257 49.5,102C 47.9651,101.504 46.4651,101.67 45,102.5C 43.7425,102.15 43.4092,101.483 44,100.5C 55.3495,84.3191 68.8495,70.3191 84.5,58.5 Z"/></g>
<g><path style="opacity:1" fill="#e8db2a" d="M 299.5,73.5 C 300.099,71.0655 301.599,69.3988 304,68.5C 308.767,70.9883 308.6,73.3216 303.5,75.5C 302.14,74.8201 300.807,74.1534 299.5,73.5 Z"/></g>
<g><path style="opacity:1" fill="#534d3a" d="M 314.5,67.5 C 315.5,67.5 316.5,67.5 317.5,67.5C 317.5,68.5 317.5,69.5 317.5,70.5C 316.5,70.5 315.5,70.5 314.5,70.5C 314.5,69.5 314.5,68.5 314.5,67.5 Z"/></g>
<g><path style="opacity:1" fill="#3a3534" d="M 141.5,49.5 C 144.599,49.0923 146.933,50.259 148.5,53C 146.953,53.3334 145.62,52.8334 144.5,51.5C 139.955,55.5821 138.955,54.9154 141.5,49.5 Z"/></g>
<g><path style="opacity:1" fill="#1d1c31" d="M 279.5,40.5 C 284.989,40.504 286.822,43.1707 285,48.5C 284.506,46.8659 284.34,45.1992 284.5,43.5C 282.738,43.3573 281.071,43.6906 279.5,44.5C 278.374,43.1916 278.374,41.8583 279.5,40.5 Z"/></g>
<g><path style="opacity:1" fill="#27242b" d="M 198.5,26.5 C 197.432,25.5655 196.099,25.2322 194.5,25.5C 194.821,30.6946 194.487,35.6946 193.5,40.5C 193.013,39.5266 192.513,38.5266 192,37.5C 190.333,38.8333 188.667,40.1667 187,41.5C 185.372,40.1813 185.539,38.8479 187.5,37.5C 184.808,34.3872 183.808,30.7205 184.5,26.5C 182.654,26.7778 181.32,26.1112 180.5,24.5C 186.889,24.139 192.889,23.139 198.5,21.5C 199.895,23.0544 200.561,22.721 200.5,20.5C 199.814,18.653 198.814,16.9863 197.5,15.5C 197.667,14.8333 197.833,14.1667 198,13.5C 200.962,16.5484 202.462,20.2151 202.5,24.5C 211.853,25.4068 221.186,26.2401 230.5,27C 229.585,23.8321 227.919,21.1655 225.5,19C 225.833,18.5 226.167,18 226.5,17.5C 229.617,20.4793 231.617,24.146 232.5,28.5C 234.071,29.3094 235.738,29.6427 237.5,29.5C 237.329,24.5057 239.662,22.6724 244.5,24C 246.874,26.039 248.874,28.3723 250.5,31C 248.362,29.2574 245.862,27.7574 243,26.5C 240.136,27.0676 239.302,28.5676 240.5,31C 245.167,32.3333 249.833,33.6667 254.5,35C 265.802,40.0357 276.802,45.5357 287.5,51.5C 287.62,54.2048 286.62,54.8715 284.5,53.5C 283.522,53.9767 282.689,54.6433 282,55.5C 280,58.8333 278,62.1667 276,65.5C 274.635,64.4071 274.301,63.0738 275,61.5C 277.29,58.4201 279.457,55.2534 281.5,52C 278.617,49.3908 275.283,47.5575 271.5,46.5C 269.889,47.3202 269.222,48.6536 269.5,50.5C 270.822,50.33 271.989,50.6634 273,51.5C 274.282,55.5842 273.282,58.9175 270,61.5C 269.626,60.5838 269.126,59.7504 268.5,59C 270.019,57.6487 271.352,56.1487 272.5,54.5C 270.926,53.3691 269.259,53.2025 267.5,54C 266.458,55.918 265.292,57.7513 264,59.5C 262.706,58.1456 262.54,56.8123 263.5,55.5C 257.909,54.3493 256.075,51.016 258,45.5C 261.429,43.9865 264.429,44.6532 267,47.5C 267.87,46.8921 268.37,46.0588 268.5,45C 265.999,43.155 263.333,41.4884 260.5,40C 258.866,39.5065 257.199,39.3398 255.5,39.5C 254.021,43.8019 252.521,48.1352 251,52.5C 250.13,51.8921 249.63,51.0588 249.5,50C 250.833,46.3333 252.167,42.6667 253.5,39C 252.629,37.2307 251.296,36.564 249.5,37C 248.453,39.9788 247.119,42.8121 245.5,45.5C 242.939,42.7874 243.106,40.454 246,38.5C 246.667,37.5 246.667,36.5 246,35.5C 243.985,34.1577 241.818,33.6577 239.5,34C 238.053,38.481 236.553,42.981 235,47.5C 234.056,46.737 233.556,45.737 233.5,44.5C 235.407,40.3604 236.407,36.027 236.5,31.5C 234.5,31.5 232.5,31.5 230.5,31.5C 229.646,36.231 228.48,40.8977 227,45.5C 225.977,44.3999 225.477,43.0666 225.5,41.5C 226.095,38.0476 227.095,34.7143 228.5,31.5C 227.061,29.4469 225.061,28.4469 222.5,28.5C 222.163,33.5383 221.496,38.5383 220.5,43.5C 218.525,41.45 216.191,41.1167 213.5,42.5C 211.626,42.6102 210.126,41.9436 209,40.5C 208.281,36.8546 207.781,33.1879 207.5,29.5C 209.924,29.8076 212.257,29.4742 214.5,28.5C 210.607,27.1846 206.607,26.5179 202.5,26.5C 202.827,31.544 202.494,36.544 201.5,41.5C 200.713,40.7579 200.047,39.9246 199.5,39C 200.134,36.9255 200.468,34.7588 200.5,32.5C 200.461,30.0478 199.794,28.0478 198.5,26.5 Z"/></g>
<g><path style="opacity:1" fill="#dcd138" d="M 259.5,47.5 C 263.241,46.5985 265.241,47.9319 265.5,51.5C 263.5,51.5 261.5,51.5 259.5,51.5C 259.5,50.1667 259.5,48.8333 259.5,47.5 Z"/></g>
<g><path style="opacity:1" fill="#27242c" d="M 136.5,23.5 C 138.527,23.3379 140.527,23.5045 142.5,24C 144.043,25.7137 145.71,27.2137 147.5,28.5C 153.181,27.5931 158.847,26.5931 164.5,25.5C 168.142,25.6969 168.475,26.8636 165.5,29C 166.207,32.822 166.874,36.6553 167.5,40.5C 167.167,41.1667 166.833,41.8333 166.5,42.5C 165.335,41.5089 164.168,40.5089 163,39.5C 158.404,41.2714 155.237,39.7714 153.5,35C 155.061,34.059 156.395,32.8924 157.5,31.5C 154.824,28.9785 151.99,28.9785 149,31.5C 148.226,35.8118 148.726,39.9785 150.5,44C 149.99,45.8261 149.156,45.9928 148,44.5C 147.163,40.486 146.329,36.486 145.5,32.5C 139.977,31.5372 137.477,33.8705 138,39.5C 136.315,41.0175 134.815,42.6841 133.5,44.5C 134,45.8805 135,46.5472 136.5,46.5C 138.728,45.7814 140.561,44.448 142,42.5C 143.767,45.1571 142.934,46.9904 139.5,48C 136.86,48.839 134.527,48.339 132.5,46.5C 130.473,48.339 128.14,48.839 125.5,48C 123.709,45.586 122.043,43.086 120.5,40.5C 118.998,41.0831 117.665,41.9164 116.5,43C 118.703,47.046 120.703,51.2127 122.5,55.5C 121.675,56.3857 120.675,56.719 119.5,56.5C 117.975,52.6152 116.308,48.7819 114.5,45C 111.447,43.9277 109.447,44.9277 108.5,48C 108.756,53.5432 111.423,57.2099 116.5,59C 112.664,59.0547 109.164,57.8881 106,55.5C 105.873,54.2234 106.373,53.0567 107.5,52C 106.101,48.047 103.934,47.547 101,50.5C 99.9412,50.3699 99.1079,49.8699 98.5,49C 112.671,40.7201 127.671,34.3868 143.5,30C 144.16,26.4995 142.493,24.9995 138.5,25.5C 138.762,26.9778 138.429,28.3112 137.5,29.5C 135.261,27.8669 134.928,25.8669 136.5,23.5 Z"/></g>
<g><path style="opacity:1" fill="#e6da2c" d="M 125.5,42.5 C 128.764,42.7264 129.764,44.2264 128.5,47C 126.227,46.6834 125.227,45.1834 125.5,42.5 Z"/></g>
<g><path style="opacity:1" fill="#e7da2c" d="M 130.5,35.5 C 132.167,35.5 133.833,35.5 135.5,35.5C 133.359,41.6794 129.359,43.0127 123.5,39.5C 126.05,38.3964 128.383,37.063 130.5,35.5 Z"/></g>
<g><path style="opacity:1" fill="#a49c52" d="M 198.5,26.5 C 197.5,26.5 196.5,26.5 195.5,26.5C 195.827,31.544 195.494,36.544 194.5,41.5C 193.893,41.3764 193.56,41.0431 193.5,40.5C 194.487,35.6946 194.821,30.6946 194.5,25.5C 196.099,25.2322 197.432,25.5655 198.5,26.5 Z"/></g>
<g><path style="opacity:1" fill="#eee229" d="M 216.5,28.5 C 217.5,28.5 218.5,28.5 219.5,28.5C 219.5,31.8333 219.5,35.1667 219.5,38.5C 216.739,39.9205 213.739,40.5871 210.5,40.5C 210.5,39.5 210.5,38.5 210.5,37.5C 212.167,37.5 213.833,37.5 215.5,37.5C 215.5,36.5 215.5,35.5 215.5,34.5C 213.396,34.7989 211.396,34.4656 209.5,33.5C 211.743,32.5258 214.076,32.1924 216.5,32.5C 216.5,31.1667 216.5,29.8333 216.5,28.5 Z"/></g>
<g><path style="opacity:1" fill="#f0e524" d="M 161.5,28.5 C 164.758,32.8027 163.924,36.1361 159,38.5C 157.72,38.3865 156.887,37.7199 156.5,36.5C 159.379,35.1974 160.045,33.1974 158.5,30.5C 159.602,29.8243 160.602,29.1577 161.5,28.5 Z"/></g>
<g><path style="opacity:1" fill="#f6e91c" d="M 187.5,26.5 C 188.833,26.5 190.167,26.5 191.5,26.5C 191.663,28.8568 191.497,31.1902 191,33.5C 189.989,34.3366 188.822,34.67 187.5,34.5C 187.5,31.8333 187.5,29.1667 187.5,26.5 Z"/></g>
<g><path style="opacity:1" fill="#3d3839" d="M 198.5,21.5 C 197.167,21.5 195.833,21.5 194.5,21.5C 194.642,16.8046 195.975,16.8046 198.5,21.5 Z"/></g>
<g><path style="opacity:1" fill="#b2a948" d="M 169.5,4.5 C 182.327,3.33979 195.327,3.17312 208.5,4C 210.058,4.21003 211.391,4.71003 212.5,5.5C 198.184,4.65292 183.851,4.31958 169.5,4.5 Z"/></g>
<g><path style="opacity:1" fill="#211f2a" d="M 14.5,186.5 C 15.9526,185.175 15.6192,184.342 13.5,184C 14.4158,183.722 15.0825,183.222 15.5,182.5C 16.2485,181.469 16.9152,180.302 17.5,179C 16.966,175.602 16.966,172.102 17.5,168.5C 19.8044,154.751 23.6377,141.417 29,128.5C 29.414,128.043 29.914,127.709 30.5,127.5C 31.1667,128.833 31.8333,130.167 32.5,131.5C 36.5424,133.336 40.5424,135.17 44.5,137C 43.8921,137.87 43.0588,138.37 42,138.5C 38.1148,137.063 34.2815,135.396 30.5,133.5C 29.0499,134.85 28.3832,136.516 28.5,138.5C 33.2276,139.91 37.8942,141.41 42.5,143C 41.5,143.5 40.5,144 39.5,144.5C 37.2706,143.423 34.9372,142.756 32.5,142.5C 32.2606,144.467 32.5939,146.301 33.5,148C 32.0953,149.269 30.4286,149.769 28.5,149.5C 28.7563,147.063 29.4229,144.729 30.5,142.5C 29.9653,140.899 28.9653,140.399 27.5,141C 24.8461,144.786 23.6794,148.953 24,153.5C 28.2909,155.365 32.7909,156.531 37.5,157C 36.3999,158.023 35.0666,158.523 33.5,158.5C 30.1108,158.047 26.7775,157.38 23.5,156.5C 21.7826,157.668 21.1159,159.335 21.5,161.5C 26.1897,162.138 30.8564,162.971 35.5,164C 34.737,164.944 33.737,165.444 32.5,165.5C 30.2178,164.777 27.8845,164.443 25.5,164.5C 25.585,166.929 26.585,168.929 28.5,170.5C 27.3112,171.429 25.9778,171.762 24.5,171.5C 24.33,172.822 24.6634,173.989 25.5,175C 28.6725,175.425 31.6725,175.091 34.5,174C 31.3768,177.02 27.7102,178.02 23.5,177C 22.4258,176.261 21.7591,175.261 21.5,174C 22.2887,172.374 23.2887,170.874 24.5,169.5C 23.1667,167.833 23.1667,166.167 24.5,164.5C 23.3112,163.571 21.9778,163.238 20.5,163.5C 19.1119,169.711 18.4453,176.045 18.5,182.5C 23.504,182.889 28.504,183.389 33.5,184C 28.3548,185.446 23.0214,185.946 17.5,185.5C 17.5,187.167 17.5,188.833 17.5,190.5C 22.5111,190.334 27.5111,190.501 32.5,191C 31.3826,192.892 29.7159,193.725 27.5,193.5C 27.1412,195.766 27.8078,197.599 29.5,199C 26.6051,202.334 22.9384,203.167 18.5,201.5C 18.5391,203.359 17.7058,204.692 16,205.5C 15.8279,198.987 15.3279,192.653 14.5,186.5 Z"/></g>
<g><path style="opacity:1" fill="#a19741" d="M 17.5,168.5 C 16.966,172.102 16.966,175.602 17.5,179C 16.9152,180.302 16.2485,181.469 15.5,182.5C 15.1228,177.547 15.7895,172.881 17.5,168.5 Z"/></g>
<g><path style="opacity:1" fill="#2a262c" d="M 357.5,199.5 C 359.5,199.5 361.5,199.5 363.5,199.5C 363.821,194.305 363.487,189.305 362.5,184.5C 362.5,183.5 362.5,182.5 362.5,181.5C 360.833,181.5 359.167,181.5 357.5,181.5C 354.287,181.81 351.287,181.477 348.5,180.5C 352.591,179.105 356.924,178.438 361.5,178.5C 361.5,176.5 361.5,174.5 361.5,172.5C 357.989,173.058 354.489,173.724 351,174.5C 346.723,173.941 346.556,173.274 350.5,172.5C 349.45,165.548 352.45,161.881 359.5,161.5C 358.754,160.264 358.421,158.93 358.5,157.5C 353.986,157.712 349.652,158.712 345.5,160.5C 343.128,159.637 343.128,158.471 345.5,157C 349.314,156.766 352.981,155.932 356.5,154.5C 357.452,152.955 357.785,151.288 357.5,149.5C 352.411,149.788 347.578,151.121 343,153.5C 341.623,152.964 341.623,151.964 343,150.5C 344.011,149.663 345.178,149.33 346.5,149.5C 347.244,146.05 345.91,144.384 342.5,144.5C 342.022,141.722 343.022,139.722 345.5,138.5C 346.167,139.167 346.833,139.833 347.5,140.5C 347.398,135.428 349.731,133.595 354.5,135C 355.688,140.326 353.354,142.826 347.5,142.5C 347.732,149.039 350.399,150.205 355.5,146C 354.151,144.365 354.318,142.865 356,141.5C 357.912,145.687 359.579,150.021 361,154.5C 364.045,152.281 365.211,149.281 364.5,145.5C 365.5,145.5 366.5,145.5 367.5,145.5C 366.686,149.962 364.686,153.795 361.5,157C 365.034,172.299 366.201,187.799 365,203.5C 364.667,203.833 364.333,204.167 364,204.5C 359.097,202.904 353.93,201.904 348.5,201.5C 348.709,200.914 349.043,200.414 349.5,200C 352.146,199.503 354.813,199.336 357.5,199.5 Z"/></g>
<g><path style="opacity:1" fill="#e9dd2c" d="M 353.5,165.5 C 355.833,165.5 358.167,165.5 360.5,165.5C 360.5,167.167 360.5,168.833 360.5,170.5C 358.143,170.663 355.81,170.497 353.5,170C 350.894,168.35 350.894,166.85 353.5,165.5 Z"/></g>
<g><path style="opacity:1" fill="#ded234" d="M 350.5,136.5 C 351.5,136.5 352.5,136.5 353.5,136.5C 353.5,137.5 353.5,138.5 353.5,139.5C 350.433,139.879 349.433,138.879 350.5,136.5 Z"/></g>
<g><path style="opacity:1" fill="#857f4a" d="M 348.5,180.5 C 351.287,181.477 354.287,181.81 357.5,181.5C 354.313,182.806 350.98,182.806 347.5,181.5C 347.624,180.893 347.957,180.56 348.5,180.5 Z"/></g>
<g><path style="opacity:1" fill="#3c3938" d="M 7.5,184.5 C 9.19919,184.34 10.8659,184.506 12.5,185C 10.7312,186.064 9.06449,187.231 7.5,188.5C 6.83333,188.167 6.16667,187.833 5.5,187.5C 6.19251,186.482 6.85917,185.482 7.5,184.5 Z"/></g>
<g><path style="opacity:1" fill="#b7ad45" d="M 372.5,158.5 C 373.461,162.335 374.295,166.335 375,170.5C 375.667,183.167 375.667,195.833 375,208.5C 374.79,210.058 374.29,211.391 373.5,212.5C 374.988,194.464 374.654,176.464 372.5,158.5 Z"/></g>
<g><path style="opacity:1" fill="#2a2832" d="M 14.5,186.5 C 13.0582,187.82 12.3915,189.486 12.5,191.5C 11.325,191.719 10.325,191.386 9.5,190.5C 10.6046,188.389 12.2712,187.055 14.5,186.5 Z"/></g>
<g><path style="opacity:1" fill="#d6ca36" d="M 17.5,192.5 C 19.8333,192.5 22.1667,192.5 24.5,192.5C 24.5,194.5 24.5,196.5 24.5,198.5C 22.1667,198.5 19.8333,198.5 17.5,198.5C 17.5,196.5 17.5,194.5 17.5,192.5 Z"/></g>
<g><path style="opacity:1" fill="#29262e" d="M 359.5,195.5 C 359.869,197.993 359.203,198.66 357.5,197.5C 355.721,196.33 354.721,194.664 354.5,192.5C 355.5,192.5 356.5,192.5 357.5,192.5C 357.915,190.052 356.915,188.719 354.5,188.5C 346.732,194.126 346.065,193.626 352.5,187C 359.206,185.523 361.206,187.689 358.5,193.5C 358.863,194.183 359.196,194.85 359.5,195.5 Z"/></g>
<g><path style="opacity:1" fill="#8c854b" d="M 362.5,184.5 C 363.487,189.305 363.821,194.305 363.5,199.5C 361.5,199.5 359.5,199.5 357.5,199.5C 357.5,198.833 357.5,198.167 357.5,197.5C 359.203,198.66 359.869,197.993 359.5,195.5C 360.158,196.398 360.824,197.398 361.5,198.5C 362.493,193.88 362.827,189.214 362.5,184.5 Z"/></g>
<g><path style="opacity:1" fill="#282224" d="M 275.5,335.5 C 273.952,335.179 273.285,334.179 273.5,332.5C 280.134,328.529 285.801,323.529 290.5,317.5C 291.239,317.631 291.906,317.464 292.5,317C 333.301,275.318 347.468,225.818 335,168.5C 334.243,166.685 333.41,165.019 332.5,163.5C 316.964,115.13 285.297,82.2971 237.5,65C 173.969,46.3847 119.803,61.2181 75,109.5C 43.9947,147.021 33.1613,189.687 42.5,237.5C 49.4688,270.444 65.4688,298.11 90.5,320.5C 95.2782,324.729 100.278,328.729 105.5,332.5C 105.715,334.179 105.048,335.179 103.5,335.5C 87.1509,324.151 73.4843,310.151 62.5,293.5C 61.4884,292.128 60.4884,290.795 59.5,289.5C 58.7515,287.668 57.7515,286.001 56.5,284.5C 55.7368,282.632 54.7368,280.965 53.5,279.5C 28.7616,229.379 29.5949,179.712 56,130.5C 95.3136,70.0387 150.814,45.5387 222.5,57C 284.842,73.6748 324.009,113.175 340,175.5C 350.235,241.98 328.735,295.313 275.5,335.5 Z"/></g>
<g><path style="opacity:1" fill="#302625" d="M 55.5,182.5 C 52.3671,182.761 51.2005,184.428 52,187.5C 52.3826,188.056 52.8826,188.389 53.5,188.5C 53.7839,191.777 53.4505,194.943 52.5,198C 49.0927,198.266 45.7594,197.766 42.5,196.5C 45.4281,195.516 48.4281,195.183 51.5,195.5C 51.7989,193.396 51.4656,191.396 50.5,189.5C 47.0779,188.078 44.7445,185.745 43.5,182.5C 47.6478,181.356 51.6478,181.356 55.5,182.5 Z"/></g>
<g><path style="opacity:1" fill="#0f82c6" d="M 290.5,317.5 C 285.801,323.529 280.134,328.529 273.5,332.5C 273.5,329.167 273.5,325.833 273.5,322.5C 270.713,321.523 267.713,321.19 264.5,321.5C 264.5,325.833 264.5,330.167 264.5,334.5C 258.167,334.5 251.833,334.5 245.5,334.5C 245.5,333.833 245.5,333.167 245.5,332.5C 246.468,330.393 246.802,328.059 246.5,325.5C 266.669,310.697 280.336,291.197 287.5,267C 287.257,266.098 286.923,265.265 286.5,264.5C 297.678,223.108 287.011,187.941 254.5,159C 211.675,128.133 168.675,127.8 125.5,158C 90.6259,188.669 79.9593,226.169 93.5,270.5C 98.5711,290.759 108.904,307.926 124.5,322C 127.047,324.054 129.714,325.887 132.5,327.5C 132.205,329.735 132.539,331.735 133.5,333.5C 131.052,334.473 128.385,334.806 125.5,334.5C 123.298,331.274 120.965,328.107 118.5,325C 117.181,324.805 115.847,324.972 114.5,325.5C 114.5,324.167 114.5,322.833 114.5,321.5C 111.287,321.19 108.287,321.523 105.5,322.5C 105.5,325.833 105.5,329.167 105.5,332.5C 100.278,328.729 95.2782,324.729 90.5,320.5C 94.4577,317.556 98.4577,314.556 102.5,311.5C 100.078,307.656 97.4113,303.99 94.5,300.5C 90.3982,302.967 86.2315,305.3 82,307.5C 79.5423,305.286 77.5423,302.619 76,299.5C 74.8129,297.956 74.4795,296.289 75,294.5C 79.17,292.178 83.0034,289.511 86.5,286.5C 85.2365,283.21 84.0698,279.876 83,276.5C 81.9383,275.903 80.7716,275.57 79.5,275.5C 75.1131,276.347 70.7797,277.347 66.5,278.5C 65.7112,273.464 64.7112,268.464 63.5,263.5C 68.1667,262.5 72.8333,261.5 77.5,260.5C 77.1667,255.833 76.8333,251.167 76.5,246.5C 71.1667,246.5 65.8333,246.5 60.5,246.5C 60.5,241.5 60.5,236.5 60.5,231.5C 65.8333,231.5 71.1667,231.5 76.5,231.5C 76.4372,226.797 76.7705,222.13 77.5,217.5C 72.5336,216.373 67.5336,215.373 62.5,214.5C 63.8164,209.545 64.8164,204.545 65.5,199.5C 69.8613,200.34 74.1946,201.34 78.5,202.5C 79.7716,202.43 80.9383,202.097 82,201.5C 83.3094,197.901 84.8094,194.401 86.5,191C 82.582,188.123 78.4153,185.623 74,183.5C 73.4795,181.711 73.8129,180.044 75,178.5C 76.5423,175.381 78.5423,172.714 81,170.5C 84.7208,171.943 88.2208,173.777 91.5,176C 92.5,176.667 93.5,176.667 94.5,176C 97.0454,172.41 99.712,168.91 102.5,165.5C 99.0156,161.515 95.349,157.682 91.5,154C 95,150.5 98.5,147 102,143.5C 105.167,146.667 108.333,149.833 111.5,153C 113.289,153.52 114.956,153.187 116.5,152C 119.042,149.289 121.709,146.789 124.5,144.5C 121.95,140.451 119.617,136.284 117.5,132C 120.453,129.184 123.787,126.851 127.5,125C 128.784,124.316 129.951,124.483 131,125.5C 132.934,129.759 135.268,133.759 138,137.5C 141.636,135.266 145.469,133.432 149.5,132C 150.059,131.275 150.392,130.442 150.5,129.5C 149.496,124.819 148.496,120.153 147.5,115.5C 152.466,114.373 157.466,113.373 162.5,112.5C 163.29,116.872 164.29,121.206 165.5,125.5C 170.449,126.096 175.449,126.096 180.5,125.5C 180.5,120.167 180.5,114.833 180.5,109.5C 185.5,109.5 190.5,109.5 195.5,109.5C 195.5,114.833 195.5,120.167 195.5,125.5C 200.193,125.54 204.859,125.873 209.5,126.5C 210.329,121.348 211.663,116.348 213.5,111.5C 218.102,112.817 222.769,113.817 227.5,114.5C 226.712,118.868 225.712,123.201 224.5,127.5C 224.57,128.772 224.903,129.938 225.5,131C 229.432,132.655 233.432,133.655 237.5,134C 239.623,129.585 242.123,125.418 245,121.5C 249.084,124.126 253.25,126.626 257.5,129C 255.117,133.363 252.783,137.696 250.5,142C 253.98,144.809 257.48,147.642 261,150.5C 264.682,146.651 268.515,142.984 272.5,139.5C 275.791,142.289 278.958,145.289 282,148.5C 279.987,153.274 276.82,157.441 272.5,161C 275.342,164.672 278.342,168.172 281.5,171.5C 285.833,168.833 290.167,166.167 294.5,163.5C 297.05,167.549 299.383,171.716 301.5,176C 298.21,178.984 294.543,181.484 290.5,183.5C 289.417,184.365 289.251,185.365 290,186.5C 291.781,189.333 293.281,192.333 294.5,195.5C 295.167,195.833 295.833,196.167 296.5,196.5C 300.929,195.45 305.263,194.117 309.5,192.5C 312.059,197.177 313.393,202.177 313.5,207.5C 308.45,208.403 303.783,210.07 299.5,212.5C 300.373,216.198 301.373,219.865 302.5,223.5C 307.456,224.494 312.456,224.827 317.5,224.5C 317.5,229.5 317.5,234.5 317.5,239.5C 312.5,239.5 307.5,239.5 302.5,239.5C 301.947,244.482 301.613,249.482 301.5,254.5C 306.345,255.548 311.178,256.548 316,257.5C 316.007,262.298 315.174,266.965 313.5,271.5C 308.167,270.833 302.833,270.167 297.5,269.5C 296.123,273.778 295.289,278.112 295,282.5C 299.247,284.707 303.414,287.04 307.5,289.5C 305.421,293.993 303.088,298.326 300.5,302.5C 296.007,300.421 291.674,298.088 287.5,295.5C 284.638,299.195 281.972,303.029 279.5,307C 283.036,310.704 286.702,314.204 290.5,317.5 Z"/></g>
<g><path style="opacity:1" fill="#2e3092" d="M 286.5,264.5 C 286.923,265.265 287.257,266.098 287.5,267C 280.336,291.197 266.669,310.697 246.5,325.5C 235.679,324.505 224.679,324.172 213.5,324.5C 213.5,322.5 213.5,320.5 213.5,318.5C 212.5,318.5 211.5,318.5 210.5,318.5C 210.035,313.795 210.701,309.295 212.5,305C 212.43,304.235 212.097,303.735 211.5,303.5C 211.167,303.5 210.833,303.5 210.5,303.5C 210.5,297.5 210.5,291.5 210.5,285.5C 214.702,285.817 218.702,285.483 222.5,284.5C 223.791,283.458 223.791,282.292 222.5,281C 218.179,280.501 213.846,280.334 209.5,280.5C 209.5,277.5 209.5,274.5 209.5,271.5C 213.846,271.666 218.179,271.499 222.5,271C 223.925,269.286 223.592,267.953 221.5,267C 217.514,266.501 213.514,266.334 209.5,266.5C 209.5,263.5 209.5,260.5 209.5,257.5C 213.846,257.666 218.179,257.499 222.5,257C 223.833,255.667 223.833,254.333 222.5,253C 218.179,252.501 213.846,252.334 209.5,252.5C 209.5,248.5 209.5,244.5 209.5,240.5C 207.393,239.532 205.059,239.198 202.5,239.5C 202.5,243.833 202.5,248.167 202.5,252.5C 192.859,249.872 183.192,249.872 173.5,252.5C 173.5,248.5 173.5,244.5 173.5,240.5C 171.167,240.5 168.833,240.5 166.5,240.5C 166.5,244.5 166.5,248.5 166.5,252.5C 162.154,252.334 157.821,252.501 153.5,253C 152.167,254.333 152.167,255.667 153.5,257C 157.821,257.499 162.154,257.666 166.5,257.5C 166.5,260.5 166.5,263.5 166.5,266.5C 162.154,266.334 157.821,266.501 153.5,267C 152.167,268.333 152.167,269.667 153.5,271C 157.821,271.499 162.154,271.666 166.5,271.5C 166.5,274.5 166.5,277.5 166.5,280.5C 162.154,280.334 157.821,280.501 153.5,281C 152.167,282.333 152.167,283.667 153.5,285C 157.821,285.499 162.154,285.666 166.5,285.5C 166.823,291.69 166.49,297.69 165.5,303.5C 164.903,303.735 164.57,304.235 164.5,305C 166.299,309.295 166.965,313.795 166.5,318.5C 165.539,320.265 165.205,322.265 165.5,324.5C 154.5,324.5 143.5,324.5 132.5,324.5C 132.5,325.5 132.5,326.5 132.5,327.5C 129.714,325.887 127.047,324.054 124.5,322C 108.904,307.926 98.5711,290.759 93.5,270.5C 107.415,244.097 128.748,226.597 157.5,218C 161.514,217.163 165.514,216.329 169.5,215.5C 169.5,213.167 169.5,210.833 169.5,208.5C 174.833,208.5 180.167,208.5 185.5,208.5C 185.5,207.167 185.5,205.833 185.5,204.5C 169.5,203.833 169.5,203.167 185.5,202.5C 185.5,201.167 185.5,199.833 185.5,198.5C 172.167,197.833 172.167,197.167 185.5,196.5C 185.5,195.167 185.5,193.833 185.5,192.5C 183.076,192.808 180.743,192.474 178.5,191.5C 185.833,190.167 193.167,190.167 200.5,191.5C 197.914,192.48 195.247,192.813 192.5,192.5C 192.5,193.833 192.5,195.167 192.5,196.5C 205.637,196.699 205.637,197.366 192.5,198.5C 192.5,199.833 192.5,201.167 192.5,202.5C 209.833,203.167 209.833,203.833 192.5,204.5C 192.5,205.833 192.5,207.167 192.5,208.5C 198.167,208.5 203.833,208.5 209.5,208.5C 209.5,210.5 209.5,212.5 209.5,214.5C 243.327,218.895 268.993,235.562 286.5,264.5 Z"/></g>
<g><path style="opacity:1" fill="#6cccf3" d="M 197.5,69.5 C 198.5,69.5 199.5,69.5 200.5,69.5C 200.082,70.2216 199.416,70.7216 198.5,71C 198.989,73.2092 199.989,75.0425 201.5,76.5C 201.5,76.8333 201.5,77.1667 201.5,77.5C 201.595,81.4388 203.262,82.4388 206.5,80.5C 208.689,80.5939 210.689,81.2606 212.5,82.5C 214.026,82.0057 215.359,81.339 216.5,80.5C 217.485,77.9429 218.485,75.2763 219.5,72.5C 220.72,72.8869 221.387,73.7202 221.5,75C 220.896,77.5238 220.229,80.0238 219.5,82.5C 221.396,83.4656 223.396,83.7989 225.5,83.5C 226.167,83.5 226.833,83.5 227.5,83.5C 228.315,84.8366 229.482,85.8366 231,86.5C 232.771,86.9198 234.604,86.9198 236.5,86.5C 237.589,88.1171 239.256,88.9504 241.5,89C 241.167,89.3333 240.833,89.6667 240.5,90C 241.667,90.1667 242.833,90.3333 244,90.5C 245.681,90.3917 246.848,89.7251 247.5,88.5C 249.435,87.8505 251.435,87.5172 253.5,87.5C 253.494,84.4524 254.494,83.9524 256.5,86C 254.099,86.805 254.266,87.6383 257,88.5C 257.333,88.1667 257.667,87.8333 258,87.5C 258.791,88.745 259.291,90.0783 259.5,91.5C 258.89,92.391 258.557,93.391 258.5,94.5C 257.751,95.531 257.085,96.6976 256.5,98C 258.425,97.8651 260.425,97.6984 262.5,97.5C 262.67,98.8221 262.337,99.9887 261.5,101C 262.715,103.096 263.549,102.929 264,100.5C 264.671,101.252 265.504,101.586 266.5,101.5C 266.461,102.756 266.961,103.756 268,104.5C 269.49,103.272 270.99,103.272 272.5,104.5C 273.272,105.694 274.272,106.694 275.5,107.5C 276.919,108.451 278.585,108.784 280.5,108.5C 280.351,109.552 280.517,110.552 281,111.5C 282.724,108.27 284.724,107.936 287,110.5C 286.866,112.189 286.366,113.856 285.5,115.5C 286.5,116.5 287.5,117.5 288.5,118.5C 289.167,118.5 289.833,118.5 290.5,118.5C 291.376,118.369 292.043,118.702 292.5,119.5C 291.48,121.432 291.313,123.432 292,125.5C 293.011,124.663 294.178,124.33 295.5,124.5C 295.263,125.791 295.596,126.791 296.5,127.5C 297.5,128.5 298.5,129.5 299.5,130.5C 299.461,131.583 299.127,132.583 298.5,133.5C 300.717,134.974 302.717,136.64 304.5,138.5C 305.5,139.167 306.5,139.833 307.5,140.5C 307.232,142.099 307.566,143.432 308.5,144.5C 309.167,145.833 310.167,146.833 311.5,147.5C 312.833,148.167 314.167,148.833 315.5,149.5C 314.12,149.962 313.453,150.962 313.5,152.5C 313.902,154.3 314.569,155.967 315.5,157.5C 315.62,160.578 316.62,163.245 318.5,165.5C 322.5,164.167 326.5,164.167 330.5,165.5C 331.167,164.833 331.833,164.167 332.5,163.5C 333.41,165.019 334.243,166.685 335,168.5C 347.468,225.818 333.301,275.318 292.5,317C 291.906,317.464 291.239,317.631 290.5,317.5C 286.702,314.204 283.036,310.704 279.5,307C 281.972,303.029 284.638,299.195 287.5,295.5C 291.674,298.088 296.007,300.421 300.5,302.5C 303.088,298.326 305.421,293.993 307.5,289.5C 303.414,287.04 299.247,284.707 295,282.5C 295.289,278.112 296.123,273.778 297.5,269.5C 302.833,270.167 308.167,270.833 313.5,271.5C 315.174,266.965 316.007,262.298 316,257.5C 311.178,256.548 306.345,255.548 301.5,254.5C 301.613,249.482 301.947,244.482 302.5,239.5C 307.5,239.5 312.5,239.5 317.5,239.5C 317.5,234.5 317.5,229.5 317.5,224.5C 312.456,224.827 307.456,224.494 302.5,223.5C 301.373,219.865 300.373,216.198 299.5,212.5C 303.783,210.07 308.45,208.403 313.5,207.5C 313.393,202.177 312.059,197.177 309.5,192.5C 305.263,194.117 300.929,195.45 296.5,196.5C 295.833,196.167 295.167,195.833 294.5,195.5C 293.281,192.333 291.781,189.333 290,186.5C 289.251,185.365 289.417,184.365 290.5,183.5C 294.543,181.484 298.21,178.984 301.5,176C 299.383,171.716 297.05,167.549 294.5,163.5C 290.167,166.167 285.833,168.833 281.5,171.5C 278.342,168.172 275.342,164.672 272.5,161C 276.82,157.441 279.987,153.274 282,148.5C 278.958,145.289 275.791,142.289 272.5,139.5C 268.515,142.984 264.682,146.651 261,150.5C 257.48,147.642 253.98,144.809 250.5,142C 252.783,137.696 255.117,133.363 257.5,129C 253.25,126.626 249.084,124.126 245,121.5C 242.123,125.418 239.623,129.585 237.5,134C 233.432,133.655 229.432,132.655 225.5,131C 224.903,129.938 224.57,128.772 224.5,127.5C 225.712,123.201 226.712,118.868 227.5,114.5C 222.769,113.817 218.102,112.817 213.5,111.5C 211.663,116.348 210.329,121.348 209.5,126.5C 204.859,125.873 200.193,125.54 195.5,125.5C 195.5,120.167 195.5,114.833 195.5,109.5C 190.5,109.5 185.5,109.5 180.5,109.5C 180.5,114.833 180.5,120.167 180.5,125.5C 175.449,126.096 170.449,126.096 165.5,125.5C 164.29,121.206 163.29,116.872 162.5,112.5C 157.466,113.373 152.466,114.373 147.5,115.5C 148.496,120.153 149.496,124.819 150.5,129.5C 150.392,130.442 150.059,131.275 149.5,132C 145.469,133.432 141.636,135.266 138,137.5C 135.268,133.759 132.934,129.759 131,125.5C 129.951,124.483 128.784,124.316 127.5,125C 123.787,126.851 120.453,129.184 117.5,132C 119.617,136.284 121.95,140.451 124.5,144.5C 121.709,146.789 119.042,149.289 116.5,152C 114.956,153.187 113.289,153.52 111.5,153C 108.333,149.833 105.167,146.667 102,143.5C 98.5,147 95,150.5 91.5,154C 95.349,157.682 99.0156,161.515 102.5,165.5C 99.712,168.91 97.0454,172.41 94.5,176C 93.5,176.667 92.5,176.667 91.5,176C 88.2208,173.777 84.7208,171.943 81,170.5C 78.5423,172.714 76.5423,175.381 75,178.5C 73.8129,180.044 73.4795,181.711 74,183.5C 78.4153,185.623 82.582,188.123 86.5,191C 84.8094,194.401 83.3094,197.901 82,201.5C 80.9383,202.097 79.7716,202.43 78.5,202.5C 74.1946,201.34 69.8613,200.34 65.5,199.5C 64.8164,204.545 63.8164,209.545 62.5,214.5C 67.5336,215.373 72.5336,216.373 77.5,217.5C 76.7705,222.13 76.4372,226.797 76.5,231.5C 71.1667,231.5 65.8333,231.5 60.5,231.5C 60.5,236.5 60.5,241.5 60.5,246.5C 65.8333,246.5 71.1667,246.5 76.5,246.5C 76.8333,251.167 77.1667,255.833 77.5,260.5C 72.8333,261.5 68.1667,262.5 63.5,263.5C 64.7112,268.464 65.7112,273.464 66.5,278.5C 70.7797,277.347 75.1131,276.347 79.5,275.5C 80.7716,275.57 81.9383,275.903 83,276.5C 84.0698,279.876 85.2365,283.21 86.5,286.5C 83.0034,289.511 79.17,292.178 75,294.5C 74.4795,296.289 74.8129,297.956 76,299.5C 77.5423,302.619 79.5423,305.286 82,307.5C 86.2315,305.3 90.3982,302.967 94.5,300.5C 97.4113,303.99 100.078,307.656 102.5,311.5C 98.4577,314.556 94.4577,317.556 90.5,320.5C 65.4688,298.11 49.4688,270.444 42.5,237.5C 42.3398,235.801 42.5065,234.134 43,232.5C 43.2896,234.044 43.9563,235.377 45,236.5C 47.0249,234.008 49.5249,232.341 52.5,231.5C 53.4734,231.013 54.4734,230.513 55.5,230C 53.8333,229.667 52.1667,229.333 50.5,229C 52.0614,228.059 53.3947,226.892 54.5,225.5C 46.1289,224.664 45.7956,223.664 53.5,222.5C 56.1667,220.833 56.1667,219.167 53.5,217.5C 52.5,217.5 51.5,217.5 50.5,217.5C 50.2872,214.549 50.9539,211.882 52.5,209.5C 52.5,208.833 52.5,208.167 52.5,207.5C 53.2161,205.444 53.8828,203.277 54.5,201C 52.1224,200.026 52.4557,199.359 55.5,199C 54.8648,195.397 54.1982,191.897 53.5,188.5C 52.8826,188.389 52.3826,188.056 52,187.5C 51.2005,184.428 52.3671,182.761 55.5,182.5C 56.7483,179.516 58.415,176.682 60.5,174C 59.6433,173.311 58.9767,172.478 58.5,171.5C 59.8333,169.167 59.8333,166.833 58.5,164.5C 60.0777,163.702 61.7444,163.202 63.5,163C 64.9255,161.286 64.5922,159.953 62.5,159C 64.5785,157.73 64.9118,156.23 63.5,154.5C 62.0917,151.043 63.4251,149.376 67.5,149.5C 69.2016,145.77 71.2016,142.104 73.5,138.5C 71.9907,136.38 72.324,134.713 74.5,133.5C 77.0979,134.773 79.5979,135.44 82,135.5C 82.0178,133.203 81.8511,130.869 81.5,128.5C 82.7298,126.703 83.3964,124.703 83.5,122.5C 85.2789,120.656 87.6122,119.99 90.5,120.5C 90.5,118.833 90.5,117.167 90.5,115.5C 92.099,115.768 93.4324,115.434 94.5,114.5C 95.5,114.167 96.1667,113.5 96.5,112.5C 96.3808,107.278 98.7141,105.611 103.5,107.5C 104.467,106.194 105.801,105.527 107.5,105.5C 107.413,102.402 107.913,102.068 109,104.5C 111.46,103.245 112.627,101.245 112.5,98.5C 114.415,98.7845 116.081,98.4511 117.5,97.5C 118.167,97.1667 118.833,96.8333 119.5,96.5C 121.028,95.1979 122.028,93.5313 122.5,91.5C 123.151,92.0906 123.818,92.7573 124.5,93.5C 124.985,91.2229 124.319,89.0563 122.5,87C 125.177,87.8311 127.843,88.9978 130.5,90.5C 133.492,90.1909 134.825,88.5242 134.5,85.5C 136.167,85.5 137.833,85.5 139.5,85.5C 139.47,86.4972 139.97,87.1639 141,87.5C 142.011,86.9444 142.844,86.2778 143.5,85.5C 145.435,84.8505 147.435,84.5172 149.5,84.5C 151.268,83.2379 152.935,82.2379 154.5,81.5C 155.167,81.8333 155.833,82.1667 156.5,82.5C 157.391,81.8902 158.391,81.5569 159.5,81.5C 159.933,74.6514 161.933,73.9847 165.5,79.5C 166.719,81.3005 168.552,82.3005 171,82.5C 172.762,82.0556 172.595,81.5556 170.5,81C 174.07,80.1965 177.237,81.0298 180,83.5C 181.832,82.1417 183.665,81.8084 185.5,82.5C 186.192,81.9747 186.692,81.3081 187,80.5C 187.519,81.5156 188.353,82.1822 189.5,82.5C 191.105,81.5697 192.605,81.5697 194,82.5C 195.5,81.3333 197,80.1667 198.5,79C 197.549,75.9433 197.216,72.7766 197.5,69.5 Z"/></g>
<g><path style="opacity:1" fill="#323134" d="M 325.5,205.5 C 329.182,205.335 332.848,205.501 336.5,206C 338.954,211.546 337.288,214.213 331.5,214C 329.845,212.556 329.178,210.722 329.5,208.5C 328.167,208.5 326.833,208.5 325.5,208.5C 325.5,207.5 325.5,206.5 325.5,205.5 Z"/></g>
<g><path style="opacity:1" fill="#5d8ca1" d="M 331.5,207.5 C 332.833,207.5 334.167,207.5 335.5,207.5C 335.5,208.833 335.5,210.167 335.5,211.5C 334.167,211.5 332.833,211.5 331.5,211.5C 331.5,210.167 331.5,208.833 331.5,207.5 Z"/></g>
<g><path style="opacity:1" fill="#241817" d="M 327.5,193.5 C 335.993,192.471 338.327,195.637 334.5,203C 325.751,204.426 323.418,201.259 327.5,193.5 Z"/></g>
<g><path style="opacity:1" fill="#6abbdd" d="M 328.5,195.5 C 331.641,194.908 333.974,195.908 335.5,198.5C 335.392,199.442 335.059,200.275 334.5,201C 332.19,201.497 329.857,201.663 327.5,201.5C 327.325,199.379 327.659,197.379 328.5,195.5 Z"/></g>
<g><path style="opacity:1" fill="#271e1d" d="M 326.5,182.5 C 329.518,182.335 332.518,182.502 335.5,183C 333.975,184.009 332.308,184.509 330.5,184.5C 330.5,186.167 330.5,187.833 330.5,189.5C 332.527,189.338 334.527,189.505 336.5,190C 333.037,191.469 329.37,192.303 325.5,192.5C 325.5,191.5 325.5,190.5 325.5,189.5C 326.833,189.5 328.167,189.5 329.5,189.5C 329.5,188.167 329.5,186.833 329.5,185.5C 327.25,185.819 325.25,185.319 323.5,184C 324.737,183.768 325.737,183.268 326.5,182.5 Z"/></g>
<g><path style="opacity:1" fill="#353235" d="M 330.5,170.5 C 331.586,170.62 332.253,171.287 332.5,172.5C 333.331,174.473 333.498,176.473 333,178.5C 325.467,183.816 321.634,181.816 321.5,172.5C 324.727,172.324 327.727,171.657 330.5,170.5 Z"/></g>
<g><path style="opacity:1" fill="#68aac6" d="M 323.5,174.5 C 327.161,174.35 328.161,175.85 326.5,179C 325.551,179.617 324.718,179.451 324,178.5C 323.51,177.207 323.343,175.873 323.5,174.5 Z"/></g>
<g><path style="opacity:1" fill="#6ccdf5" d="M 286.5,264.5 C 268.993,235.562 243.327,218.895 209.5,214.5C 209.5,212.5 209.5,210.5 209.5,208.5C 203.833,208.5 198.167,208.5 192.5,208.5C 192.5,207.167 192.5,205.833 192.5,204.5C 209.833,203.833 209.833,203.167 192.5,202.5C 192.5,201.167 192.5,199.833 192.5,198.5C 205.637,197.366 205.637,196.699 192.5,196.5C 192.5,195.167 192.5,193.833 192.5,192.5C 195.247,192.813 197.914,192.48 200.5,191.5C 193.167,190.167 185.833,190.167 178.5,191.5C 180.743,192.474 183.076,192.808 185.5,192.5C 185.5,193.833 185.5,195.167 185.5,196.5C 172.167,197.167 172.167,197.833 185.5,198.5C 185.5,199.833 185.5,201.167 185.5,202.5C 169.5,203.167 169.5,203.833 185.5,204.5C 185.5,205.833 185.5,207.167 185.5,208.5C 180.167,208.5 174.833,208.5 169.5,208.5C 169.5,210.833 169.5,213.167 169.5,215.5C 165.514,216.329 161.514,217.163 157.5,218C 128.748,226.597 107.415,244.097 93.5,270.5C 79.9593,226.169 90.6259,188.669 125.5,158C 168.675,127.8 211.675,128.133 254.5,159C 287.011,187.941 297.678,223.108 286.5,264.5 Z"/></g>
<g><path style="opacity:1" fill="#6bc2e5" d="M 332.5,163.5 C 331.833,164.167 331.167,164.833 330.5,165.5C 330.586,164.504 330.252,163.671 329.5,163C 328.062,162.781 326.729,162.281 325.5,161.5C 327.124,160.131 327.624,158.464 327,156.5C 324.588,160.074 321.755,163.074 318.5,165.5C 316.62,163.245 315.62,160.578 315.5,157.5C 320.835,159.503 322.169,158.17 319.5,153.5C 319.598,154.616 319.098,155.616 318,156.5C 314.854,154.703 314.687,152.536 317.5,150C 322.656,148.488 324.323,150.154 322.5,155C 324.498,156.724 325.498,156.057 325.5,153C 323.843,147.249 320.509,146.082 315.5,149.5C 314.167,148.833 312.833,148.167 311.5,147.5C 319.992,147.18 321.658,143.68 316.5,137C 310.824,136.174 308.157,138.674 308.5,144.5C 307.566,143.432 307.232,142.099 307.5,140.5C 307.123,138.742 306.456,137.075 305.5,135.5C 307.5,133.673 309.667,132.006 312,130.5C 312.688,129.668 312.521,129.002 311.5,128.5C 308.5,130.5 305.5,132.5 302.5,134.5C 303.63,135.622 304.297,136.956 304.5,138.5C 302.717,136.64 300.717,134.974 298.5,133.5C 299.127,132.583 299.461,131.583 299.5,130.5C 303.164,132.202 305.997,131.202 308,127.5C 308.228,120.46 305.061,118.627 298.5,122C 297.139,123.584 296.472,125.418 296.5,127.5C 295.596,126.791 295.263,125.791 295.5,124.5C 294.178,124.33 293.011,124.663 292,125.5C 291.313,123.432 291.48,121.432 292.5,119.5C 292.043,118.702 291.376,118.369 290.5,118.5C 291.458,117.038 292.624,115.705 294,114.5C 293.371,117.484 293.537,120.484 294.5,123.5C 297.743,121.452 299.91,118.785 301,115.5C 299.833,116.667 298.667,117.833 297.5,119C 296.668,119.688 296.002,119.521 295.5,118.5C 296.482,115.904 297.149,113.238 297.5,110.5C 296.448,110.351 295.448,110.517 294.5,111C 291.913,113.081 289.913,115.581 288.5,118.5C 287.5,117.5 286.5,116.5 285.5,115.5C 289.747,113.77 292.247,110.77 293,106.5C 290.72,110.412 288.553,110.412 286.5,106.5C 287.167,105.5 287.833,104.5 288.5,103.5C 288.167,103.167 287.833,102.833 287.5,102.5C 285.147,104.523 282.814,106.523 280.5,108.5C 278.585,108.784 276.919,108.451 275.5,107.5C 277.288,107.785 278.955,107.452 280.5,106.5C 278.604,105.534 276.604,105.201 274.5,105.5C 274.457,100.697 276.623,98.6972 281,99.5C 281.219,100.938 281.719,102.271 282.5,103.5C 284.205,98.1554 282.205,95.9887 276.5,97C 273.603,98.7155 272.269,101.215 272.5,104.5C 270.99,103.272 269.49,103.272 268,104.5C 266.961,103.756 266.461,102.756 266.5,101.5C 265.504,101.586 264.671,101.252 264,100.5C 263.549,102.929 262.715,103.096 261.5,101C 262.337,99.9887 262.67,98.8221 262.5,97.5C 260.425,97.6984 258.425,97.8651 256.5,98C 257.085,96.6976 257.751,95.531 258.5,94.5C 258.393,96.3786 258.893,96.7119 260,95.5C 261.544,93.5318 262.711,91.3651 263.5,89C 264.833,89 266.167,89 267.5,89C 265.213,86.3413 262.546,85.1746 259.5,85.5C 261.935,87.5185 261.935,89.5185 259.5,91.5C 259.291,90.0783 258.791,88.745 258,87.5C 257.667,87.8333 257.333,88.1667 257,88.5C 254.266,87.6383 254.099,86.805 256.5,86C 254.494,83.9524 253.494,84.4524 253.5,87.5C 251.435,87.5172 249.435,87.8505 247.5,88.5C 246.848,89.7251 245.681,90.3917 244,90.5C 242.833,90.3333 241.667,90.1667 240.5,90C 240.833,89.6667 241.167,89.3333 241.5,89C 239.256,88.9504 237.589,88.1171 236.5,86.5C 234.604,86.9198 232.771,86.9198 231,86.5C 229.482,85.8366 228.315,84.8366 227.5,83.5C 228.043,83.44 228.376,83.1067 228.5,82.5C 226.955,81.5481 225.288,81.2148 223.5,81.5C 223.5,80.1667 223.5,78.8333 223.5,77.5C 225.599,78.2309 227.599,78.2309 229.5,77.5C 227.955,76.5481 226.288,76.2148 224.5,76.5C 224.5,75.5 224.5,74.5 224.5,73.5C 226.949,74.0574 229.282,74.0574 231.5,73.5C 228.734,71.8713 225.734,71.2046 222.5,71.5C 222.276,75.1788 221.942,78.8455 221.5,82.5C 223.099,82.2322 224.432,82.5655 225.5,83.5C 223.396,83.7989 221.396,83.4656 219.5,82.5C 220.229,80.0238 220.896,77.5238 221.5,75C 221.387,73.7202 220.72,72.8869 219.5,72.5C 218.485,75.2763 217.485,77.9429 216.5,80.5C 215.359,81.339 214.026,82.0057 212.5,82.5C 210.689,81.2606 208.689,80.5939 206.5,80.5C 203.262,82.4388 201.595,81.4388 201.5,77.5C 206.06,80.8228 209.227,79.8228 211,74.5C 211.808,72.4213 211.641,70.4213 210.5,68.5C 208.73,71.1934 208.063,74.1934 208.5,77.5C 206.833,77.5 205.167,77.5 203.5,77.5C 203.712,73.9853 203.712,70.652 203.5,67.5C 202.914,67.7093 202.414,68.0426 202,68.5C 201.503,71.146 201.336,73.8127 201.5,76.5C 199.989,75.0425 198.989,73.2092 198.5,71C 199.416,70.7216 200.082,70.2216 200.5,69.5C 196.971,67.5772 192.971,66.9106 188.5,67.5C 188.177,71.226 188.511,74.8927 189.5,78.5C 190.484,75.5719 190.817,72.5719 190.5,69.5C 191.833,69.5 193.167,69.5 194.5,69.5C 194.183,72.5719 194.516,75.5719 195.5,78.5C 196.167,75.3583 196.834,72.3583 197.5,69.5C 197.216,72.7766 197.549,75.9433 198.5,79C 197,80.1667 195.5,81.3333 194,82.5C 192.605,81.5697 191.105,81.5697 189.5,82.5C 188.353,82.1822 187.519,81.5156 187,80.5C 186.692,81.3081 186.192,81.9747 185.5,82.5C 183.665,81.8084 181.832,82.1417 180,83.5C 177.237,81.0298 174.07,80.1965 170.5,81C 172.595,81.5556 172.762,82.0556 171,82.5C 168.552,82.3005 166.719,81.3005 165.5,79.5C 166.117,79.6107 166.617,79.944 167,80.5C 167.671,76.364 167.171,72.364 165.5,68.5C 164.833,70.5 164.167,72.5 163.5,74.5C 162.167,72.5 160.5,70.8333 158.5,69.5C 157.88,73.5189 158.213,77.5189 159.5,81.5C 158.391,81.5569 157.391,81.8902 156.5,82.5C 156.588,78.6942 155.921,75.0275 154.5,71.5C 153.808,74.7697 153.808,78.103 154.5,81.5C 152.935,82.2379 151.268,83.2379 149.5,84.5C 149.611,83.8826 149.944,83.3826 150.5,83C 148.343,82.9219 146.343,82.7552 144.5,82.5C 143.499,79.8275 142.499,77.1608 141.5,74.5C 141.167,75.1667 140.833,75.8333 140.5,76.5C 141.308,79.5917 142.308,82.5917 143.5,85.5C 142.844,86.2778 142.011,86.9444 141,87.5C 139.97,87.1639 139.47,86.4972 139.5,85.5C 141.353,86.6143 141.853,85.9476 141,83.5C 138.793,80.436 135.959,78.436 132.5,77.5C 133.761,89.9365 132.094,90.9365 127.5,80.5C 126.9,82.5756 126.567,84.5756 126.5,86.5C 124.449,84.2802 122.116,83.6136 119.5,84.5C 120.788,86.7388 121.788,89.0721 122.5,91.5C 122.028,93.5313 121.028,95.1979 119.5,96.5C 121.892,89.7347 119.559,86.568 112.5,87C 108.633,90.2488 108.633,93.5821 112.5,97C 114.134,97.4935 115.801,97.6602 117.5,97.5C 116.081,98.4511 114.415,98.7845 112.5,98.5C 112.627,101.245 111.46,103.245 109,104.5C 107.913,102.068 107.413,102.402 107.5,105.5C 105.801,105.527 104.467,106.194 103.5,107.5C 100.782,104.475 97.449,102.141 93.5,100.5C 92.3373,102.55 92.5039,104.55 94,106.5C 94.6025,103.094 95.7692,102.761 97.5,105.5C 96.5089,106.665 95.5089,107.832 94.5,109C 94.8082,110.459 95.4749,111.626 96.5,112.5C 96.1667,113.5 95.5,114.167 94.5,114.5C 93.4324,115.434 92.099,115.768 90.5,115.5C 90.5,117.167 90.5,118.833 90.5,120.5C 87.6122,119.99 85.2789,120.656 83.5,122.5C 78.7452,116.915 74.4119,117.249 70.5,123.5C 73.1878,126.022 76.0211,128.356 79,130.5C 79.7083,129.619 80.5416,128.953 81.5,128.5C 81.8511,130.869 82.0178,133.203 82,135.5C 79.5979,135.44 77.0979,134.773 74.5,133.5C 75.2625,132.732 76.2625,132.232 77.5,132C 74.0233,130.342 70.3566,129.175 66.5,128.5C 67.1938,132.39 68.8604,135.89 71.5,139C 70.6959,140.771 69.5292,142.271 68,143.5C 66.3333,140.5 64.6667,137.5 63,134.5C 60.9382,136.505 59.9382,138.839 60,141.5C 60.8333,140.5 61.6667,139.5 62.5,138.5C 64.6227,140.745 65.6227,143.412 65.5,146.5C 62.1667,146.5 58.8333,146.5 55.5,146.5C 55.3505,147.552 55.5172,148.552 56,149.5C 58.3504,151.683 60.517,154.016 62.5,156.5C 63.2975,156.043 63.6309,155.376 63.5,154.5C 64.9118,156.23 64.5785,157.73 62.5,159C 64.5922,159.953 64.9255,161.286 63.5,163C 61.7444,163.202 60.0777,163.702 58.5,164.5C 59.8333,166.833 59.8333,169.167 58.5,171.5C 58.9767,172.478 59.6433,173.311 60.5,174C 58.415,176.682 56.7483,179.516 55.5,182.5C 51.6478,181.356 47.6478,181.356 43.5,182.5C 44.7445,185.745 47.0779,188.078 50.5,189.5C 51.4656,191.396 51.7989,193.396 51.5,195.5C 48.4281,195.183 45.4281,195.516 42.5,196.5C 45.7594,197.766 49.0927,198.266 52.5,198C 53.4505,194.943 53.7839,191.777 53.5,188.5C 54.1982,191.897 54.8648,195.397 55.5,199C 52.4557,199.359 52.1224,200.026 54.5,201C 53.8828,203.277 53.2161,205.444 52.5,207.5C 52.5,208.167 52.5,208.833 52.5,209.5C 48.34,210.744 44.6733,212.744 41.5,215.5C 41.7093,216.086 42.0426,216.586 42.5,217C 45.6883,217.755 48.8549,218.589 52,219.5C 53.0299,219.164 53.5299,218.497 53.5,217.5C 56.1667,219.167 56.1667,220.833 53.5,222.5C 53.6309,221.624 53.2975,220.957 52.5,220.5C 49.2094,221.382 45.876,222.048 42.5,222.5C 42.5,223.5 42.5,224.5 42.5,225.5C 44.924,225.192 47.2573,225.526 49.5,226.5C 46.3369,227.324 44.6702,229.324 44.5,232.5C 47.1667,232.167 49.8333,231.833 52.5,231.5C 49.5249,232.341 47.0249,234.008 45,236.5C 43.9563,235.377 43.2896,234.044 43,232.5C 42.5065,234.134 42.3398,235.801 42.5,237.5C 33.1613,189.687 43.9947,147.021 75,109.5C 119.803,61.2181 173.969,46.3847 237.5,65C 285.297,82.2971 316.964,115.13 332.5,163.5 Z"/></g>
<g><path style="opacity:1" fill="#211211" d="M 52.5,207.5 C 48.877,208.758 45.2103,208.758 41.5,207.5C 44.7683,206.513 48.1016,206.18 51.5,206.5C 51.7135,204.856 51.3802,203.356 50.5,202C 38.4999,200.671 38.4999,200.004 50.5,200C 52.2785,202.135 52.9452,204.635 52.5,207.5 Z"/></g>
<g><path style="opacity:1" fill="#2b2423" d="M 46.5,168.5 C 50.3522,168.87 54.0188,169.87 57.5,171.5C 55.6397,173.562 53.3064,174.895 50.5,175.5C 51.8237,176.935 53.4904,177.935 55.5,178.5C 55.3333,178.833 55.1667,179.167 55,179.5C 51.9509,178.39 48.7842,177.723 45.5,177.5C 45.281,176.325 45.6143,175.325 46.5,174.5C 53.4836,173.282 53.817,171.949 47.5,170.5C 46.7025,170.043 46.3691,169.376 46.5,168.5 Z"/></g>
<g><path style="opacity:1" fill="#322f31" d="M 330.5,165.5 C 326.5,164.167 322.5,164.167 318.5,165.5C 321.755,163.074 324.588,160.074 327,156.5C 327.624,158.464 327.124,160.131 325.5,161.5C 326.729,162.281 328.062,162.781 329.5,163C 330.252,163.671 330.586,164.504 330.5,165.5 Z"/></g>
<g><path style="opacity:1" fill="#323033" d="M 49.5,160.5 C 53.5546,160.176 57.5546,160.509 61.5,161.5C 60.3112,162.429 58.9778,162.762 57.5,162.5C 57.838,165.011 57.838,167.345 57.5,169.5C 53.3512,167.692 50.6846,164.692 49.5,160.5 Z"/></g>
<g><path style="opacity:1" fill="#251a19" d="M 315.5,157.5 C 314.569,155.967 313.902,154.3 313.5,152.5C 313.453,150.962 314.12,149.962 315.5,149.5C 320.509,146.082 323.843,147.249 325.5,153C 325.498,156.057 324.498,156.724 322.5,155C 324.323,150.154 322.656,148.488 317.5,150C 314.687,152.536 314.854,154.703 318,156.5C 319.098,155.616 319.598,154.616 319.5,153.5C 322.169,158.17 320.835,159.503 315.5,157.5 Z"/></g>
<g><path style="opacity:1" fill="#322b2c" d="M 74.5,133.5 C 72.324,134.713 71.9907,136.38 73.5,138.5C 71.2016,142.104 69.2016,145.77 67.5,149.5C 63.4251,149.376 62.0917,151.043 63.5,154.5C 63.6309,155.376 63.2975,156.043 62.5,156.5C 60.517,154.016 58.3504,151.683 56,149.5C 55.5172,148.552 55.3505,147.552 55.5,146.5C 58.8333,146.5 62.1667,146.5 65.5,146.5C 65.6227,143.412 64.6227,140.745 62.5,138.5C 61.6667,139.5 60.8333,140.5 60,141.5C 59.9382,138.839 60.9382,136.505 63,134.5C 64.6667,137.5 66.3333,140.5 68,143.5C 69.5292,142.271 70.6959,140.771 71.5,139C 68.8604,135.89 67.1938,132.39 66.5,128.5C 70.3566,129.175 74.0233,130.342 77.5,132C 76.2625,132.232 75.2625,132.732 74.5,133.5 Z"/></g>
<g><path style="opacity:1" fill="#271d1c" d="M 311.5,147.5 C 310.167,146.833 309.167,145.833 308.5,144.5C 308.157,138.674 310.824,136.174 316.5,137C 321.658,143.68 319.992,147.18 311.5,147.5 Z"/></g>
<g><path style="opacity:1" fill="#6bbfe2" d="M 313.5,138.5 C 318.993,139.306 319.66,141.473 315.5,145C 313.866,145.494 312.199,145.66 310.5,145.5C 309.909,142.325 310.909,139.991 313.5,138.5 Z"/></g>
<g><path style="opacity:1" fill="#2a1e1c" d="M 307.5,140.5 C 306.5,139.833 305.5,139.167 304.5,138.5C 304.297,136.956 303.63,135.622 302.5,134.5C 305.5,132.5 308.5,130.5 311.5,128.5C 312.521,129.002 312.688,129.668 312,130.5C 309.667,132.006 307.5,133.673 305.5,135.5C 306.456,137.075 307.123,138.742 307.5,140.5 Z"/></g>
<g><path style="opacity:1" fill="#2a1e1c" d="M 83.5,122.5 C 83.3964,124.703 82.7298,126.703 81.5,128.5C 80.5416,128.953 79.7083,129.619 79,130.5C 76.0211,128.356 73.1878,126.022 70.5,123.5C 74.4119,117.249 78.7452,116.915 83.5,122.5 Z"/></g>
<g><path style="opacity:1" fill="#6cbfe1" d="M 74.5,120.5 C 79.3234,120.327 81.3234,122.661 80.5,127.5C 77.7374,127.256 75.5707,125.923 74,123.5C 73.5304,122.423 73.6971,121.423 74.5,120.5 Z"/></g>
<g><path style="opacity:1" fill="#2a2122" d="M 299.5,130.5 C 298.5,129.5 297.5,128.5 296.5,127.5C 296.472,125.418 297.139,123.584 298.5,122C 305.061,118.627 308.228,120.46 308,127.5C 305.997,131.202 303.164,132.202 299.5,130.5 Z"/></g>
<g><path style="opacity:1" fill="#6bbfe2" d="M 300.5,122.5 C 306.431,121.742 307.764,123.742 304.5,128.5C 302.958,129.747 301.458,129.747 300,128.5C 299.322,126.402 299.489,124.402 300.5,122.5 Z"/></g>
<g><path style="opacity:1" fill="#281f1d" d="M 290.5,118.5 C 289.833,118.5 289.167,118.5 288.5,118.5C 289.913,115.581 291.913,113.081 294.5,111C 295.448,110.517 296.448,110.351 297.5,110.5C 297.149,113.238 296.482,115.904 295.5,118.5C 296.002,119.521 296.668,119.688 297.5,119C 298.667,117.833 299.833,116.667 301,115.5C 299.91,118.785 297.743,121.452 294.5,123.5C 293.537,120.484 293.371,117.484 294,114.5C 292.624,115.705 291.458,117.038 290.5,118.5 Z"/></g>
<g><path style="opacity:1" fill="#2b2221" d="M 94.5,114.5 C 91.447,114.319 88.447,114.152 85.5,114C 86.6667,115.167 87.8333,116.333 89,117.5C 89.6877,118.332 89.521,118.998 88.5,119.5C 84.9633,117.313 82.63,114.313 81.5,110.5C 84.2075,111.449 86.8742,111.449 89.5,110.5C 88.6872,109.186 87.6872,108.019 86.5,107C 90.2019,108.196 92.8686,110.696 94.5,114.5 Z"/></g>
<g><path style="opacity:1" fill="#29201f" d="M 285.5,115.5 C 286.366,113.856 286.866,112.189 287,110.5C 284.724,107.936 282.724,108.27 281,111.5C 280.517,110.552 280.351,109.552 280.5,108.5C 282.814,106.523 285.147,104.523 287.5,102.5C 287.833,102.833 288.167,103.167 288.5,103.5C 287.833,104.5 287.167,105.5 286.5,106.5C 288.553,110.412 290.72,110.412 293,106.5C 292.247,110.77 289.747,113.77 285.5,115.5 Z"/></g>
<g><path style="opacity:1" fill="#251b1a" d="M 103.5,107.5 C 98.7141,105.611 96.3808,107.278 96.5,112.5C 95.4749,111.626 94.8082,110.459 94.5,109C 95.5089,107.832 96.5089,106.665 97.5,105.5C 95.7692,102.761 94.6025,103.094 94,106.5C 92.5039,104.55 92.3373,102.55 93.5,100.5C 97.449,102.141 100.782,104.475 103.5,107.5 Z"/></g>
<g><path style="opacity:1" fill="#2a2120" d="M 275.5,107.5 C 274.272,106.694 273.272,105.694 272.5,104.5C 272.269,101.215 273.603,98.7155 276.5,97C 282.205,95.9887 284.205,98.1554 282.5,103.5C 281.719,102.271 281.219,100.938 281,99.5C 276.623,98.6972 274.457,100.697 274.5,105.5C 276.604,105.201 278.604,105.534 280.5,106.5C 278.955,107.452 277.288,107.785 275.5,107.5 Z"/></g>
<g><path style="opacity:1" fill="#291f1e" d="M 102.5,93.5 C 102.929,94.9527 103.096,96.6194 103,98.5C 104.873,100.39 105.706,102.39 105.5,104.5C 103.493,102.992 101.826,101.158 100.5,99C 99.0494,99.2626 97.7161,99.0959 96.5,98.5C 98.5193,96.8103 100.519,95.1436 102.5,93.5 Z"/></g>
<g><path style="opacity:1" fill="#241714" d="M 105.5,91.5 C 108.672,94.1829 110.505,97.5163 111,101.5C 108.062,98.7396 106.228,95.4063 105.5,91.5 Z"/></g>
<g><path style="opacity:1" fill="#2a2120" d="M 266.5,101.5 C 265.77,100.288 264.77,99.2876 263.5,98.5C 265.177,95.1466 267.343,92.1466 270,89.5C 272.08,91.1233 274.246,92.6233 276.5,94C 274.149,93.8596 271.816,93.3596 269.5,92.5C 270.403,94.6087 271.237,96.6087 272,98.5C 270.416,97.1387 268.582,96.472 266.5,96.5C 266.921,98.9099 268.254,100.743 270.5,102C 269.181,102.195 267.847,102.028 266.5,101.5 Z"/></g>
<g><path style="opacity:1" fill="#271b18" d="M 258.5,94.5 C 258.557,93.391 258.89,92.391 259.5,91.5C 261.935,89.5185 261.935,87.5185 259.5,85.5C 262.546,85.1746 265.213,86.3413 267.5,89C 266.167,89 264.833,89 263.5,89C 262.711,91.3651 261.544,93.5318 260,95.5C 258.893,96.7119 258.393,96.3786 258.5,94.5 Z"/></g>
<g><path style="opacity:1" fill="#251716" d="M 119.5,96.5 C 118.833,96.8333 118.167,97.1667 117.5,97.5C 115.801,97.6602 114.134,97.4935 112.5,97C 108.633,93.5821 108.633,90.2488 112.5,87C 119.559,86.568 121.892,89.7347 119.5,96.5 Z"/></g>
<g><path style="opacity:1" fill="#6bbcde" d="M 112.5,88.5 C 117.984,88.4809 119.65,90.9809 117.5,96C 112.747,95.6756 111.08,93.1756 112.5,88.5 Z"/></g>
<g><path style="opacity:1" fill="#2d2727" d="M 139.5,85.5 C 137.833,85.5 136.167,85.5 134.5,85.5C 134.825,88.5242 133.492,90.1909 130.5,90.5C 127.843,88.9978 125.177,87.8311 122.5,87C 124.319,89.0563 124.985,91.2229 124.5,93.5C 123.818,92.7573 123.151,92.0906 122.5,91.5C 121.788,89.0721 120.788,86.7388 119.5,84.5C 122.116,83.6136 124.449,84.2802 126.5,86.5C 126.567,84.5756 126.9,82.5756 127.5,80.5C 132.094,90.9365 133.761,89.9365 132.5,77.5C 135.959,78.436 138.793,80.436 141,83.5C 141.853,85.9476 141.353,86.6143 139.5,85.5 Z"/></g>
<g><path style="opacity:1" fill="#2a1f1e" d="M 247.5,88.5 C 246.425,89.5624 245.425,89.5624 244.5,88.5C 246.105,85.6862 247.105,82.6862 247.5,79.5C 250.311,79.8257 252.978,80.6591 255.5,82C 253.765,82.6514 252.098,82.4847 250.5,81.5C 250.167,82 249.833,82.5 249.5,83C 250.272,84.221 251.272,85.221 252.5,86C 250.256,86.0496 248.589,86.8829 247.5,88.5 Z"/></g>
<g><path style="opacity:1" fill="#231614" d="M 149.5,84.5 C 147.435,84.5172 145.435,84.8505 143.5,85.5C 142.308,82.5917 141.308,79.5917 140.5,76.5C 140.833,75.8333 141.167,75.1667 141.5,74.5C 142.499,77.1608 143.499,79.8275 144.5,82.5C 146.343,82.7552 148.343,82.9219 150.5,83C 149.944,83.3826 149.611,83.8826 149.5,84.5 Z"/></g>
<g><path style="opacity:1" fill="#2e2422" d="M 201.5,77.5 C 201.5,77.1667 201.5,76.8333 201.5,76.5C 201.336,73.8127 201.503,71.146 202,68.5C 202.414,68.0426 202.914,67.7093 203.5,67.5C 203.712,70.652 203.712,73.9853 203.5,77.5C 205.167,77.5 206.833,77.5 208.5,77.5C 208.063,74.1934 208.73,71.1934 210.5,68.5C 211.641,70.4213 211.808,72.4213 211,74.5C 209.227,79.8228 206.06,80.8228 201.5,77.5 Z"/></g>
<g><path style="opacity:1" fill="#302727" d="M 170.5,67.5 C 172.199,67.3398 173.866,67.5065 175.5,68C 176.517,69.0495 176.684,70.2161 176,71.5C 174.069,68.8953 172.236,68.8953 170.5,71.5C 172.707,72.6348 175.04,73.3015 177.5,73.5C 177.864,78.6589 175.53,80.4922 170.5,79C 169.269,77.8173 169.269,76.6507 170.5,75.5C 171.842,77.0049 173.508,77.6715 175.5,77.5C 175.5,76.5 175.5,75.5 175.5,74.5C 169.238,74.9442 167.571,72.6108 170.5,67.5 Z"/></g>
<g><path style="opacity:1" fill="#261a19" d="M 236.5,86.5 C 233.329,81.6883 234.329,78.0216 239.5,75.5C 245.485,76.7536 246.985,80.087 244,85.5C 241.67,87.5465 239.17,87.8799 236.5,86.5 Z"/></g>
<g><path style="opacity:1" fill="#6ab6d5" d="M 238.5,77.5 C 243.068,77.0826 244.568,79.0826 243,83.5C 241.267,85.6015 239.267,85.9348 237,84.5C 236.391,81.9348 236.891,79.6015 238.5,77.5 Z"/></g>
<g><path style="opacity:1" fill="#291f1e" d="M 227.5,83.5 C 226.833,83.5 226.167,83.5 225.5,83.5C 224.432,82.5655 223.099,82.2322 221.5,82.5C 221.942,78.8455 222.276,75.1788 222.5,71.5C 225.734,71.2046 228.734,71.8713 231.5,73.5C 229.282,74.0574 226.949,74.0574 224.5,73.5C 224.5,74.5 224.5,75.5 224.5,76.5C 226.288,76.2148 227.955,76.5481 229.5,77.5C 227.599,78.2309 225.599,78.2309 223.5,77.5C 223.5,78.8333 223.5,80.1667 223.5,81.5C 225.288,81.2148 226.955,81.5481 228.5,82.5C 228.376,83.1067 228.043,83.44 227.5,83.5 Z"/></g>
<g><path style="opacity:1" fill="#2f2b2c" d="M 165.5,79.5 C 161.933,73.9847 159.933,74.6514 159.5,81.5C 158.213,77.5189 157.88,73.5189 158.5,69.5C 160.5,70.8333 162.167,72.5 163.5,74.5C 164.167,72.5 164.833,70.5 165.5,68.5C 167.171,72.364 167.671,76.364 167,80.5C 166.617,79.944 166.117,79.6107 165.5,79.5 Z"/></g>
<g><path style="opacity:1" fill="#261b1c" d="M 156.5,82.5 C 155.833,82.1667 155.167,81.8333 154.5,81.5C 153.808,78.103 153.808,74.7697 154.5,71.5C 155.921,75.0275 156.588,78.6942 156.5,82.5 Z"/></g>
<g><path style="opacity:1" fill="#251a19" d="M 216.5,80.5 C 215.761,80.631 215.094,80.4643 214.5,80C 216.199,76.1369 215.532,72.8035 212.5,70C 215.515,69.7991 218.515,70.1324 221.5,71C 220.207,71.49 218.873,71.6567 217.5,71.5C 217.037,74.4824 216.704,77.4824 216.5,80.5 Z"/></g>
<g><path style="opacity:1" fill="#282021" d="M 200.5,69.5 C 199.5,69.5 198.5,69.5 197.5,69.5C 196.834,72.3583 196.167,75.3583 195.5,78.5C 194.516,75.5719 194.183,72.5719 194.5,69.5C 193.167,69.5 191.833,69.5 190.5,69.5C 190.817,72.5719 190.484,75.5719 189.5,78.5C 188.511,74.8927 188.177,71.226 188.5,67.5C 192.971,66.9106 196.971,67.5772 200.5,69.5 Z"/></g>
<g><path style="opacity:1" fill="#1e100e" d="M 178.5,68.5 C 184.567,67.2847 186.234,67.2847 183.5,68.5C 182.833,81.8333 182.167,81.8333 181.5,68.5C 180.5,68.5 179.5,68.5 178.5,68.5 Z"/></g>
<g><path style="opacity:1" fill="#2f2a2b" d="M 52.5,209.5 C 50.9539,211.882 50.2872,214.549 50.5,217.5C 51.5,217.5 52.5,217.5 53.5,217.5C 53.5299,218.497 53.0299,219.164 52,219.5C 48.8549,218.589 45.6883,217.755 42.5,217C 42.0426,216.586 41.7093,216.086 41.5,215.5C 44.6733,212.744 48.34,210.744 52.5,209.5 Z"/></g>
<g><path style="opacity:1" fill="#2f2b2c" d="M 325.5,214.5 C 325.735,213.903 326.235,213.57 327,213.5C 329.894,214.697 332.727,216.03 335.5,217.5C 336.386,218.325 336.719,219.325 336.5,220.5C 332.611,221.965 328.611,222.465 324.5,222C 327.966,219.738 328.3,217.238 325.5,214.5 Z"/></g>
<g><path style="opacity:1" fill="#271f1f" d="M 53.5,222.5 C 45.7956,223.664 46.1289,224.664 54.5,225.5C 53.3947,226.892 52.0614,228.059 50.5,229C 52.1667,229.333 53.8333,229.667 55.5,230C 54.4734,230.513 53.4734,231.013 52.5,231.5C 49.8333,231.833 47.1667,232.167 44.5,232.5C 44.6702,229.324 46.3369,227.324 49.5,226.5C 47.2573,225.526 44.924,225.192 42.5,225.5C 42.5,224.5 42.5,223.5 42.5,222.5C 45.876,222.048 49.2094,221.382 52.5,220.5C 53.2975,220.957 53.6309,221.624 53.5,222.5 Z"/></g>
<g><path style="opacity:1" fill="#221512" d="M 324.5,224.5 C 328.41,224.263 332.077,225.096 335.5,227C 332.132,227.543 328.799,227.376 325.5,226.5C 325.785,228.288 325.452,229.955 324.5,231.5C 323.637,229.229 323.637,226.895 324.5,224.5 Z"/></g>
<g><path style="opacity:1" fill="#f5e726" d="M 202.5,252.5 C 203.483,248.702 203.817,244.702 203.5,240.5C 205.5,240.5 207.5,240.5 209.5,240.5C 209.5,244.5 209.5,248.5 209.5,252.5C 213.846,252.334 218.179,252.501 222.5,253C 223.833,254.333 223.833,255.667 222.5,257C 218.179,257.499 213.846,257.666 209.5,257.5C 209.5,260.5 209.5,263.5 209.5,266.5C 213.514,266.334 217.514,266.501 221.5,267C 223.592,267.953 223.925,269.286 222.5,271C 218.179,271.499 213.846,271.666 209.5,271.5C 209.5,274.5 209.5,277.5 209.5,280.5C 213.846,280.334 218.179,280.501 222.5,281C 223.791,282.292 223.791,283.458 222.5,284.5C 218.167,284.5 213.833,284.5 209.5,284.5C 209.177,291.022 209.51,297.355 210.5,303.5C 210.833,303.5 211.167,303.5 211.5,303.5C 209.742,308.272 209.075,313.272 209.5,318.5C 207.5,318.5 205.5,318.5 203.5,318.5C 204.097,313.706 203.43,309.373 201.5,305.5C 201.328,304.508 201.662,303.842 202.5,303.5C 203.49,297.355 203.823,291.022 203.5,284.5C 200.833,284.5 198.167,284.5 195.5,284.5C 192.533,284.002 189.533,283.669 186.5,283.5C 182.162,284.176 177.829,284.842 173.5,285.5C 172.932,292.053 173.599,298.387 175.5,304.5C 173.641,308.922 172.974,313.588 173.5,318.5C 171.5,318.5 169.5,318.5 167.5,318.5C 167.925,313.272 167.258,308.272 165.5,303.5C 166.49,297.69 166.823,291.69 166.5,285.5C 162.154,285.666 157.821,285.499 153.5,285C 152.167,283.667 152.167,282.333 153.5,281C 157.821,280.501 162.154,280.334 166.5,280.5C 166.5,277.5 166.5,274.5 166.5,271.5C 162.154,271.666 157.821,271.499 153.5,271C 152.167,269.667 152.167,268.333 153.5,267C 157.821,266.501 162.154,266.334 166.5,266.5C 166.5,263.5 166.5,260.5 166.5,257.5C 162.154,257.666 157.821,257.499 153.5,257C 152.167,255.667 152.167,254.333 153.5,253C 157.821,252.501 162.154,252.334 166.5,252.5C 166.5,248.5 166.5,244.5 166.5,240.5C 168.833,240.5 171.167,240.5 173.5,240.5C 173.5,244.5 173.5,248.5 173.5,252.5C 183.192,249.872 192.859,249.872 202.5,252.5 Z"/></g>
<g><path style="opacity:1" fill="#9d9077" d="M 209.5,240.5 C 207.5,240.5 205.5,240.5 203.5,240.5C 203.817,244.702 203.483,248.702 202.5,252.5C 202.5,248.167 202.5,243.833 202.5,239.5C 205.059,239.198 207.393,239.532 209.5,240.5 Z"/></g>
<g><path style="opacity:1" fill="#322f91" d="M 179.5,256.5 C 187.187,256.46 194.854,256.793 202.5,257.5C 202.5,260.5 202.5,263.5 202.5,266.5C 192.808,263.872 183.141,263.872 173.5,266.5C 173.5,263.5 173.5,260.5 173.5,257.5C 175.735,257.795 177.735,257.461 179.5,256.5 Z"/></g>
<g><path style="opacity:1" fill="#322f91" d="M 202.5,271.5 C 202.5,274.167 202.5,276.833 202.5,279.5C 201.5,279.5 200.5,279.5 199.5,279.5C 190.692,276.808 182.025,277.142 173.5,280.5C 173.5,277.5 173.5,274.5 173.5,271.5C 183.159,270.291 192.825,270.291 202.5,271.5 Z"/></g>
<g><path style="opacity:1" fill="#9c8e78" d="M 202.5,271.5 C 203.477,274.287 203.81,277.287 203.5,280.5C 201.901,280.768 200.568,280.434 199.5,279.5C 200.5,279.5 201.5,279.5 202.5,279.5C 202.5,276.833 202.5,274.167 202.5,271.5 Z"/></g>
<g><path style="opacity:1" fill="#288b48" d="M 329.5,292.5 C 328.36,287.558 327.86,282.558 328,277.5C 328.308,276.692 328.808,276.025 329.5,275.5C 331.09,277.68 332.424,280.013 333.5,282.5C 332.391,276.369 334.391,271.369 339.5,267.5C 340.086,267.709 340.586,268.043 341,268.5C 341.667,271.5 341.667,274.5 341,277.5C 338.457,279.342 336.29,281.509 334.5,284C 337.76,283.518 341.093,283.518 344.5,284C 341.575,288.771 337.242,290.771 331.5,290C 330.934,290.995 330.267,291.828 329.5,292.5 Z"/></g>
<g><path style="opacity:1" fill="#2f2f91" d="M 195.5,284.5 C 197.607,285.468 199.941,285.802 202.5,285.5C 202.5,291.5 202.5,297.5 202.5,303.5C 201.662,303.842 201.328,304.508 201.5,305.5C 202.484,321.756 202.818,338.089 202.5,354.5C 193.833,354.5 185.167,354.5 176.5,354.5C 176.5,342.5 176.5,330.5 176.5,318.5C 175.5,318.5 174.5,318.5 173.5,318.5C 172.974,313.588 173.641,308.922 175.5,304.5C 173.599,298.387 172.932,292.053 173.5,285.5C 177.829,284.842 182.162,284.176 186.5,283.5C 189.533,283.669 192.533,284.002 195.5,284.5 Z"/></g>
<g><path style="opacity:1" fill="#e8e01f" d="M 56.5,284.5 C 57.7515,286.001 58.7515,287.668 59.5,289.5C 57.1067,291.736 55.2734,294.403 54,297.5C 53.6667,297.167 53.3333,296.833 53,296.5C 53.8878,292.399 55.0545,288.399 56.5,284.5 Z"/></g>
<g><path style="opacity:1" fill="#a09476" d="M 195.5,284.5 C 198.167,284.5 200.833,284.5 203.5,284.5C 203.823,291.022 203.49,297.355 202.5,303.5C 202.5,297.5 202.5,291.5 202.5,285.5C 199.941,285.802 197.607,285.468 195.5,284.5 Z"/></g>
<g><path style="opacity:1" fill="#796c83" d="M 222.5,284.5 C 218.702,285.483 214.702,285.817 210.5,285.5C 210.5,291.5 210.5,297.5 210.5,303.5C 209.51,297.355 209.177,291.022 209.5,284.5C 213.833,284.5 218.167,284.5 222.5,284.5 Z"/></g>
<g><path style="opacity:1" fill="#2b8b48" d="M 329.5,292.5 C 329.369,293.239 329.536,293.906 330,294.5C 332.971,292.433 336.138,292.1 339.5,293.5C 338.687,294.814 337.687,295.981 336.5,297C 332.611,298.55 328.778,300.05 325,301.5C 324.312,302.332 324.479,302.998 325.5,303.5C 328.084,302.607 330.751,302.274 333.5,302.5C 333.256,305.263 331.923,307.429 329.5,309C 326.5,309.333 323.5,309.667 320.5,310C 314.43,316.74 307.763,322.74 300.5,328C 299.365,328.749 298.365,328.583 297.5,327.5C 304.949,322.334 311.782,316.334 318,309.5C 317.311,306.58 316.477,303.58 315.5,300.5C 315.76,298.813 316.427,297.313 317.5,296C 318.449,295.383 319.282,295.549 320,296.5C 321.044,298.715 321.71,301.048 322,303.5C 325.333,300.167 325.333,296.833 322,293.5C 321.289,291.101 321.456,288.768 322.5,286.5C 323.5,285.167 324.5,285.167 325.5,286.5C 327.015,288.547 327.849,290.881 328,293.5C 328.383,292.944 328.883,292.611 329.5,292.5 Z"/></g>
<g><path style="opacity:1" fill="#2f8c48" d="M 53.5,279.5 C 54.7368,280.965 55.7368,282.632 56.5,284.5C 55.0545,288.399 53.8878,292.399 53,296.5C 53.3333,296.833 53.6667,297.167 54,297.5C 55.2734,294.403 57.1067,291.736 59.5,289.5C 60.4884,290.795 61.4884,292.128 62.5,293.5C 61.0846,297.585 59.5846,301.585 58,305.5C 60.4764,309.303 61.8098,308.637 62,303.5C 63.0793,301.606 64.4126,301.273 66,302.5C 66.5601,306.988 66.2268,311.321 65,315.5C 71.1179,322.46 77.9512,328.46 85.5,333.5C 84.635,334.583 83.635,334.749 82.5,334C 75.2366,328.74 68.5699,322.74 62.5,316C 59.3035,315.195 56.3035,315.362 53.5,316.5C 51.4131,315.415 50.0798,313.749 49.5,311.5C 49.5,310.5 49.5,309.5 49.5,308.5C 51.8845,308.443 54.2178,308.777 56.5,309.5C 57.9317,309.267 58.4317,308.6 58,307.5C 55.0837,305.005 51.5837,303.838 47.5,304C 42.166,299.018 43.3327,297.518 51,299.5C 52.7126,298.863 52.8793,297.863 51.5,296.5C 48.1033,295.828 44.7699,294.995 41.5,294C 38.5049,291.783 38.3383,289.95 41,288.5C 43.5446,289.249 46.0446,289.749 48.5,290C 45.702,287.497 43.202,284.663 41,281.5C 40.0623,278.12 40.729,275.12 43,272.5C 48.4139,276.644 50.4139,281.978 49,288.5C 50.7869,285.637 52.2869,282.637 53.5,279.5 Z"/></g>
<g><path style="opacity:1" fill="#f7ea13" d="M 62.5,293.5 C 73.4843,310.151 87.1509,324.151 103.5,335.5C 103.5,340.5 103.5,345.5 103.5,350.5C 102.833,350.5 102.167,350.5 101.5,350.5C 99.1432,350.663 96.8098,350.497 94.5,350C 79.2143,340.707 65.5477,329.54 53.5,316.5C 56.3035,315.362 59.3035,315.195 62.5,316C 68.5699,322.74 75.2366,328.74 82.5,334C 83.635,334.749 84.635,334.583 85.5,333.5C 77.9512,328.46 71.1179,322.46 65,315.5C 66.2268,311.321 66.5601,306.988 66,302.5C 64.4126,301.273 63.0793,301.606 62,303.5C 61.8098,308.637 60.4764,309.303 58,305.5C 59.5846,301.585 61.0846,297.585 62.5,293.5 Z"/></g>
<g><path style="opacity:1" fill="#ae9f6f" d="M 165.5,303.5 C 167.258,308.272 167.925,313.272 167.5,318.5C 167.167,318.5 166.833,318.5 166.5,318.5C 166.965,313.795 166.299,309.295 164.5,305C 164.57,304.235 164.903,303.735 165.5,303.5 Z"/></g>
<g><path style="opacity:1" fill="#8d7d7d" d="M 211.5,303.5 C 212.097,303.735 212.43,304.235 212.5,305C 210.701,309.295 210.035,313.795 210.5,318.5C 210.167,318.5 209.833,318.5 209.5,318.5C 209.075,313.272 209.742,308.272 211.5,303.5 Z"/></g>
<g><path style="opacity:1" fill="#c54548" d="M 201.5,305.5 C 203.43,309.373 204.097,313.706 203.5,318.5C 205.5,318.5 207.5,318.5 209.5,318.5C 209.833,318.5 210.167,318.5 210.5,318.5C 211.5,318.5 212.5,318.5 213.5,318.5C 213.5,320.5 213.5,322.5 213.5,324.5C 212.549,323.081 212.216,321.415 212.5,319.5C 209.5,319.5 206.5,319.5 203.5,319.5C 203.5,331.5 203.5,343.5 203.5,355.5C 203.167,355.5 202.833,355.5 202.5,355.5C 202.5,355.167 202.5,354.833 202.5,354.5C 202.818,338.089 202.484,321.756 201.5,305.5 Z"/></g>
<g><path style="opacity:1" fill="#2c2828" d="M 45.5,307.5 C 46.5,309.167 47.8333,310.5 49.5,311.5C 50.0798,313.749 51.4131,315.415 53.5,316.5C 65.5477,329.54 79.2143,340.707 94.5,350C 96.8098,350.497 99.1432,350.663 101.5,350.5C 102.341,352.379 102.675,354.379 102.5,356.5C 104.5,356.5 106.5,356.5 108.5,356.5C 161.833,357.833 215.167,357.833 268.5,356.5C 271.167,356.5 273.833,356.5 276.5,356.5C 276.325,354.379 276.659,352.379 277.5,350.5C 279.527,350.662 281.527,350.495 283.5,350C 299.178,340.809 313.178,329.643 325.5,316.5C 327.048,316.821 327.715,317.821 327.5,319.5C 339.126,327.799 339.459,336.633 328.5,346C 324.686,346.234 321.019,347.068 317.5,348.5C 316.359,350.421 316.192,352.421 317,354.5C 318.095,355.693 318.928,357.027 319.5,358.5C 322.625,359.479 325.958,359.813 329.5,359.5C 329.5,372.5 329.5,385.5 329.5,398.5C 235.833,398.5 142.167,398.5 48.5,398.5C 48.5,385.5 48.5,372.5 48.5,359.5C 51.8175,360.221 55.1508,360.388 58.5,360C 66.129,350.215 63.4623,345.548 50.5,346C 39.5368,336.93 39.8702,328.596 51.5,321C 49.6664,318.337 47.6664,315.837 45.5,313.5C 44.4271,311.347 44.4271,309.347 45.5,307.5 Z M 62.5,331.5 C 65.0026,333.833 67.6693,335.999 70.5,338C 67.7682,338.154 65.1015,337.654 62.5,336.5C 61.9478,334.997 61.9478,333.331 62.5,331.5 Z M 315.5,331.5 C 317.008,333.171 317.341,335.004 316.5,337C 313.874,337.995 311.207,338.328 308.5,338C 311.288,336.281 313.621,334.115 315.5,331.5 Z M 77.5,343.5 C 80.6809,345.837 84.0142,348.004 87.5,350C 84.3825,351.372 81.2158,352.538 78,353.5C 77.5017,350.183 77.335,346.85 77.5,343.5 Z M 301.5,343.5 C 301.665,346.85 301.498,350.183 301,353.5C 297.784,352.538 294.618,351.372 291.5,350C 294.986,348.004 298.319,345.837 301.5,343.5 Z"/></g>
<g><path style="opacity:1" fill="#ed1f23" d="M 213.5,324.5 C 213.5,327.167 213.5,329.833 213.5,332.5C 224.167,332.5 234.833,332.5 245.5,332.5C 245.5,333.167 245.5,333.833 245.5,334.5C 251.979,335.491 258.646,335.824 265.5,335.5C 265.5,331.167 265.5,326.833 265.5,322.5C 268.167,322.5 270.833,322.5 273.5,322.5C 273.5,325.833 273.5,329.167 273.5,332.5C 273.285,334.179 273.952,335.179 275.5,335.5C 275.5,340.5 275.5,345.5 275.5,350.5C 275.5,352.167 275.5,353.833 275.5,355.5C 251.5,355.5 227.5,355.5 203.5,355.5C 203.5,343.5 203.5,331.5 203.5,319.5C 206.5,319.5 209.5,319.5 212.5,319.5C 212.216,321.415 212.549,323.081 213.5,324.5 Z"/></g>
<g><path style="opacity:1" fill="#ed2023" d="M 103.5,350.5 C 103.5,345.5 103.5,340.5 103.5,335.5C 105.048,335.179 105.715,334.179 105.5,332.5C 105.5,329.167 105.5,325.833 105.5,322.5C 108.167,322.5 110.833,322.5 113.5,322.5C 113.5,326.833 113.5,331.167 113.5,335.5C 120.532,335.83 127.532,335.497 134.5,334.5C 134.376,333.893 134.043,333.56 133.5,333.5C 143.987,332.506 154.654,332.172 165.5,332.5C 165.5,329.833 165.5,327.167 165.5,324.5C 166.451,323.081 166.784,321.415 166.5,319.5C 169.5,319.5 172.5,319.5 175.5,319.5C 175.5,331.5 175.5,343.5 175.5,355.5C 151.5,355.5 127.5,355.5 103.5,355.5C 103.5,353.833 103.5,352.167 103.5,350.5 Z"/></g>
<g><path style="opacity:1" fill="#faec19" d="M 165.5,324.5 C 165.5,327.167 165.5,329.833 165.5,332.5C 154.654,332.172 143.987,332.506 133.5,333.5C 132.539,331.735 132.205,329.735 132.5,327.5C 132.5,326.5 132.5,325.5 132.5,324.5C 143.5,324.5 154.5,324.5 165.5,324.5 Z"/></g>
<g><path style="opacity:1" fill="#fdef06" d="M 213.5,324.5 C 224.679,324.172 235.679,324.505 246.5,325.5C 246.802,328.059 246.468,330.393 245.5,332.5C 234.833,332.5 224.167,332.5 213.5,332.5C 213.5,329.833 213.5,327.167 213.5,324.5 Z"/></g>
<g><path style="opacity:1" fill="#6accf3" d="M 125.5,334.5 C 121.833,334.5 118.167,334.5 114.5,334.5C 114.5,331.5 114.5,328.5 114.5,325.5C 115.847,324.972 117.181,324.805 118.5,325C 120.965,328.107 123.298,331.274 125.5,334.5 Z"/></g>
<g><path style="opacity:1" fill="#b07480" d="M 105.5,322.5 C 108.287,321.523 111.287,321.19 114.5,321.5C 114.5,322.833 114.5,324.167 114.5,325.5C 114.5,328.5 114.5,331.5 114.5,334.5C 118.167,334.5 121.833,334.5 125.5,334.5C 128.385,334.806 131.052,334.473 133.5,333.5C 134.043,333.56 134.376,333.893 134.5,334.5C 127.532,335.497 120.532,335.83 113.5,335.5C 113.5,331.167 113.5,326.833 113.5,322.5C 110.833,322.5 108.167,322.5 105.5,322.5 Z"/></g>
<g><path style="opacity:1" fill="#af8790" d="M 273.5,322.5 C 270.833,322.5 268.167,322.5 265.5,322.5C 265.5,326.833 265.5,331.167 265.5,335.5C 258.646,335.824 251.979,335.491 245.5,334.5C 251.833,334.5 258.167,334.5 264.5,334.5C 264.5,330.167 264.5,325.833 264.5,321.5C 267.713,321.19 270.713,321.523 273.5,322.5 Z"/></g>
<g><path style="opacity:1" fill="#bc483d" d="M 166.5,318.5 C 166.833,318.5 167.167,318.5 167.5,318.5C 169.5,318.5 171.5,318.5 173.5,318.5C 174.5,318.5 175.5,318.5 176.5,318.5C 176.5,330.5 176.5,342.5 176.5,354.5C 154.191,356.49 131.525,357.156 108.5,356.5C 106.5,356.5 104.5,356.5 102.5,356.5C 102.675,354.379 102.341,352.379 101.5,350.5C 102.167,350.5 102.833,350.5 103.5,350.5C 103.5,352.167 103.5,353.833 103.5,355.5C 127.5,355.5 151.5,355.5 175.5,355.5C 175.5,343.5 175.5,331.5 175.5,319.5C 172.5,319.5 169.5,319.5 166.5,319.5C 166.784,321.415 166.451,323.081 165.5,324.5C 165.205,322.265 165.539,320.265 166.5,318.5 Z"/></g>
<g><path style="opacity:1" fill="#964d44" d="M 275.5,350.5 C 276.167,350.5 276.833,350.5 277.5,350.5C 276.659,352.379 276.325,354.379 276.5,356.5C 273.833,356.5 271.167,356.5 268.5,356.5C 246.327,356.831 224.327,356.497 202.5,355.5C 202.833,355.5 203.167,355.5 203.5,355.5C 227.5,355.5 251.5,355.5 275.5,355.5C 275.5,353.833 275.5,352.167 275.5,350.5 Z"/></g>
<g><path style="opacity:1" fill="#0b0b23" d="M 176.5,354.5 C 185.167,354.5 193.833,354.5 202.5,354.5C 202.5,354.833 202.5,355.167 202.5,355.5C 224.327,356.497 246.327,356.831 268.5,356.5C 215.167,357.833 161.833,357.833 108.5,356.5C 131.525,357.156 154.191,356.49 176.5,354.5 Z"/></g>
<g><path style="opacity:1" fill="#fcef0b" d="M 316.5,363.5 C 319.5,363.5 322.5,363.5 325.5,363.5C 325.5,373.833 325.5,384.167 325.5,394.5C 234.5,394.5 143.5,394.5 52.5,394.5C 52.5,384.5 52.5,374.5 52.5,364.5C 65.5043,364.333 78.5043,364.5 91.5,365C 95.1417,367.408 99.1417,368.075 103.5,367C 106.178,365.159 107.845,362.659 108.5,359.5C 161.829,358.5 215.163,358.167 268.5,358.5C 268.5,359.833 268.5,361.167 268.5,362.5C 271.439,362.918 273.772,364.418 275.5,367C 277,367.167 278.5,367.333 280,367.5C 284.586,366.405 289.086,365.071 293.5,363.5C 301.227,364.729 308.894,364.729 316.5,363.5 Z"/></g>
<g><path style="opacity:1" fill="#1b1b2d" d="M 265.5,367.5 C 267.625,368.368 267.791,369.368 266,370.5C 264.317,369.824 264.15,368.824 265.5,367.5 Z"/></g>
<g><path style="opacity:1" fill="#ede128" d="M 120.5,369.5 C 120.953,370.458 121.619,371.292 122.5,372C 119.183,372.498 115.85,372.665 112.5,372.5C 111.209,371.458 111.209,370.292 112.5,369C 115.221,368.398 117.887,368.565 120.5,369.5 Z"/></g>
<g><path style="opacity:1" fill="#2b282e" d="M 194.5,368.5 C 199.796,369.688 199.796,370.522 194.5,371C 193.402,370.23 193.402,369.397 194.5,368.5 Z"/></g>
<g><path style="opacity:1" fill="#877f40" d="M 120.5,369.5 C 122.674,369.75 124.341,370.75 125.5,372.5C 121.066,373.794 116.733,373.794 112.5,372.5C 115.85,372.665 119.183,372.498 122.5,372C 121.619,371.292 120.953,370.458 120.5,369.5 Z"/></g>
<g><path style="opacity:1" fill="#938a3e" d="M 201.5,374.5 C 191.675,373.342 181.675,373.175 171.5,374C 173.192,375.401 173.859,377.234 173.5,379.5C 172.256,377.337 171.256,375.003 170.5,372.5C 181.187,372.168 191.854,372.501 202.5,373.5C 202.376,374.107 202.043,374.44 201.5,374.5 Z"/></g>
<g><path style="opacity:1" fill="#a29740" d="M 270.5,373.5 C 254.133,373.154 240.467,373.488 229.5,374.5C 229.5,374.833 229.5,375.167 229.5,375.5C 228.167,375.5 226.833,375.5 225.5,375.5C 225.5,376.833 225.5,378.167 225.5,379.5C 224.715,377.626 224.048,375.626 223.5,373.5C 239.265,372.177 254.931,372.177 270.5,373.5 Z"/></g>
<g><path style="opacity:1" fill="#211f28" d="M 120.5,369.5 C 117.887,368.565 115.221,368.398 112.5,369C 111.209,370.292 111.209,371.458 112.5,372.5C 116.733,373.794 121.066,373.794 125.5,372.5C 135.659,373.33 145.992,373.83 156.5,374C 154.93,377.36 153.93,380.86 153.5,384.5C 153.167,384.5 152.833,384.5 152.5,384.5C 152.5,381.167 152.5,377.833 152.5,374.5C 150.5,374.5 148.5,374.5 146.5,374.5C 146.813,378.042 146.479,381.375 145.5,384.5C 141.782,386.151 138.282,385.818 135,383.5C 134.517,382.552 134.351,381.552 134.5,380.5C 136.06,380.481 137.56,380.148 139,379.5C 139.5,379.833 140,380.167 140.5,380.5C 139.167,381.167 137.833,381.833 136.5,382.5C 143.309,384.36 145.976,381.693 144.5,374.5C 143.5,374.5 142.5,374.5 141.5,374.5C 141.5,375.5 141.5,376.5 141.5,377.5C 138.606,377.042 136.106,377.709 134,379.5C 133.517,378.552 133.351,377.552 133.5,376.5C 135.288,376.785 136.955,376.452 138.5,375.5C 135.232,374.513 131.898,374.18 128.5,374.5C 128.813,378.042 128.479,381.375 127.5,384.5C 126.844,383.722 126.011,383.056 125,382.5C 119.311,384.469 117.144,382.636 118.5,377C 120.899,376.289 123.232,376.456 125.5,377.5C 126.386,376.675 126.719,375.675 126.5,374.5C 122.167,374.5 117.833,374.5 113.5,374.5C 113.823,378.226 113.489,381.893 112.5,385.5C 111.914,385.291 111.414,384.957 111,384.5C 111.038,380.668 110.205,377.168 108.5,374C 109.308,373.692 109.975,373.192 110.5,372.5C 108.946,368.705 110.279,366.705 114.5,366.5C 117.102,366.467 119.102,367.467 120.5,369.5 Z"/></g>
<g><path style="opacity:1" fill="#1b1925" d="M 201.5,374.5 C 199.5,374.5 197.5,374.5 195.5,374.5C 195.5,376.5 195.5,378.5 195.5,380.5C 194.475,380.897 194.308,381.563 195,382.5C 198.936,384.298 199.103,385.131 195.5,385C 193.5,383 191.5,381 189.5,379C 190.793,378.51 192.127,378.343 193.5,378.5C 193.5,377.167 193.5,375.833 193.5,374.5C 190.833,374.5 188.167,374.5 185.5,374.5C 185.823,378.226 185.489,381.893 184.5,385.5C 181.865,383.454 178.865,382.287 175.5,382C 174.619,381.292 173.953,380.458 173.5,379.5C 173.859,377.234 173.192,375.401 171.5,374C 181.675,373.175 191.675,373.342 201.5,374.5 Z"/></g>
<g><path style="opacity:1" fill="#19192a" d="M 270.5,373.5 C 269.791,374.404 268.791,374.737 267.5,374.5C 267.823,378.226 267.489,381.893 266.5,385.5C 265.893,385.376 265.56,385.043 265.5,384.5C 265.5,381.167 265.5,377.833 265.5,374.5C 263.833,374.5 262.167,374.5 260.5,374.5C 260.5,376.833 260.5,379.167 260.5,381.5C 257.49,384.276 254.656,383.942 252,380.5C 251.506,378.866 251.34,377.199 251.5,375.5C 250.167,375.5 248.833,375.5 247.5,375.5C 247.82,378.898 247.487,382.232 246.5,385.5C 245.081,384.995 244.415,383.995 244.5,382.5C 244.938,382.565 245.272,382.399 245.5,382C 244.584,381.722 243.918,381.222 243.5,380.5C 243.5,379.833 243.5,379.167 243.5,378.5C 244.434,377.432 244.768,376.099 244.5,374.5C 240.298,374.183 236.298,374.517 232.5,375.5C 232.5,378.5 232.5,381.5 232.5,384.5C 231.5,381.167 230.5,377.833 229.5,374.5C 240.467,373.488 254.133,373.154 270.5,373.5 Z"/></g>
<g><path style="opacity:1" fill="#a19950" d="M 152.5,384.5 C 151.523,381.713 151.19,378.713 151.5,375.5C 150.167,375.5 148.833,375.5 147.5,375.5C 147.82,378.898 147.487,382.232 146.5,385.5C 145.893,385.376 145.56,385.043 145.5,384.5C 146.479,381.375 146.813,378.042 146.5,374.5C 148.5,374.5 150.5,374.5 152.5,374.5C 152.5,377.833 152.5,381.167 152.5,384.5 Z"/></g>
<g><path style="opacity:1" fill="#9f9646" d="M 125.5,372.5 C 136.167,372.5 146.833,372.5 157.5,372.5C 156.254,376.724 155.254,381.057 154.5,385.5C 153.893,385.376 153.56,385.043 153.5,384.5C 153.93,380.86 154.93,377.36 156.5,374C 145.992,373.83 135.659,373.33 125.5,372.5 Z"/></g>
<g><path style="opacity:1" fill="#888247" d="M 201.5,374.5 C 200.081,375.451 198.415,375.784 196.5,375.5C 196.784,377.415 196.451,379.081 195.5,380.5C 195.5,378.5 195.5,376.5 195.5,374.5C 197.5,374.5 199.5,374.5 201.5,374.5 Z"/></g>
<g><path style="opacity:1" fill="#c5bc48" d="M 254.5,374.5 C 255.833,374.5 257.167,374.5 258.5,374.5C 258.5,376.833 258.5,379.167 258.5,381.5C 257.167,381.5 255.833,381.5 254.5,381.5C 254.5,379.167 254.5,376.833 254.5,374.5 Z"/></g>
<g><path style="opacity:1" fill="#746e40" d="M 265.5,384.5 C 264.523,381.713 264.19,378.713 264.5,375.5C 263.5,375.5 262.5,375.5 261.5,375.5C 261.795,377.735 261.461,379.735 260.5,381.5C 260.5,379.167 260.5,376.833 260.5,374.5C 262.167,374.5 263.833,374.5 265.5,374.5C 265.5,377.833 265.5,381.167 265.5,384.5 Z"/></g>
<g><path style="opacity:1" fill="#605b40" d="M 232.5,375.5 C 236.298,374.517 240.298,374.183 244.5,374.5C 244.768,376.099 244.434,377.432 243.5,378.5C 241.983,378.489 240.816,377.823 240,376.5C 239.51,377.793 239.343,379.127 239.5,380.5C 240.833,380.5 242.167,380.5 243.5,380.5C 243.918,381.222 244.584,381.722 245.5,382C 245.272,382.399 244.938,382.565 244.5,382.5C 239.318,382.982 236.651,380.649 236.5,375.5C 235.167,375.5 233.833,375.5 232.5,375.5 Z"/></g>
<g><path style="opacity:1" fill="#f9ec19" d="M 119.5,378.5 C 127.297,379.051 127.297,380.051 119.5,381.5C 119.5,380.5 119.5,379.5 119.5,378.5 Z"/></g>
<g><path style="opacity:1" fill="#d7cb36" d="M 175.5,374.5 C 177.833,374.5 180.167,374.5 182.5,374.5C 182.875,379.495 180.542,381.495 175.5,380.5C 175.5,378.5 175.5,376.5 175.5,374.5 Z"/></g>
<g><path style="opacity:1" fill="#e4d835" d="M 243.5,378.5 C 243.5,379.167 243.5,379.833 243.5,380.5C 242.167,380.5 240.833,380.5 239.5,380.5C 239.343,379.127 239.51,377.793 240,376.5C 240.816,377.823 241.983,378.489 243.5,378.5 Z"/></g>
<g><path style="opacity:1" fill="#8d864a" d="M 133.5,376.5 C 132.432,375.566 131.099,375.232 129.5,375.5C 129.82,378.898 129.487,382.232 128.5,385.5C 127.893,385.376 127.56,385.043 127.5,384.5C 128.479,381.375 128.813,378.042 128.5,374.5C 131.898,374.18 135.232,374.513 138.5,375.5C 136.955,376.452 135.288,376.785 133.5,376.5 Z"/></g>
<g><path style="opacity:1" fill="#443f3a" d="M 223.5,373.5 C 224.048,375.626 224.715,377.626 225.5,379.5C 226.833,379.5 228.167,379.5 229.5,379.5C 229.5,378.167 229.5,376.833 229.5,375.5C 229.5,375.167 229.5,374.833 229.5,374.5C 230.5,377.833 231.5,381.167 232.5,384.5C 232.733,386.062 233.4,387.395 234.5,388.5C 233.033,388.106 231.533,387.773 230,387.5C 228.624,387.684 227.791,388.351 227.5,389.5C 226.016,386.766 227.016,385.266 230.5,385C 229.663,383.989 229.33,382.822 229.5,381.5C 226.551,382.013 223.718,382.013 221,381.5C 220.383,380.551 220.549,379.718 221.5,379C 218.11,377.994 217.11,375.994 218.5,373C 220.265,372.36 221.932,372.527 223.5,373.5 Z"/></g>
<g><path style="opacity:1" fill="#f8eb14" d="M 229.5,375.5 C 229.5,376.833 229.5,378.167 229.5,379.5C 228.167,379.5 226.833,379.5 225.5,379.5C 225.5,378.167 225.5,376.833 225.5,375.5C 226.833,375.5 228.167,375.5 229.5,375.5 Z"/></g>
<g><path style="opacity:1" fill="#e6dc36" d="M 219.5,374.5 C 220.5,374.5 221.5,374.5 222.5,374.5C 221.754,378.31 220.754,378.31 219.5,374.5 Z"/></g>
<g><path style="opacity:1" fill="#aca043" d="M 234.5,388.5 C 236.196,388.685 237.529,389.519 238.5,391C 236.953,391.333 235.62,390.833 234.5,389.5C 232.022,392.121 229.689,392.121 227.5,389.5C 227.791,388.351 228.624,387.684 230,387.5C 231.533,387.773 233.033,388.106 234.5,388.5 Z"/></g>
<g><path style="opacity:1" fill="#dace47" d="M 316.5,363.5 C 319.625,362.521 322.958,362.187 326.5,362.5C 326.5,373.5 326.5,384.5 326.5,395.5C 234.998,395.833 143.665,395.499 52.5,394.5C 143.5,394.5 234.5,394.5 325.5,394.5C 325.5,384.167 325.5,373.833 325.5,363.5C 322.5,363.5 319.5,363.5 316.5,363.5 Z"/></g>
<g><path style="opacity:0.137" fill="#a7959a" d="M 319.5,358.5 C 323.167,358.5 326.833,358.5 330.5,358.5C 330.5,372.167 330.5,385.833 330.5,399.5C 236.5,399.5 142.5,399.5 48.5,399.5C 48.5,399.167 48.5,398.833 48.5,398.5C 142.167,398.5 235.833,398.5 329.5,398.5C 329.5,385.5 329.5,372.5 329.5,359.5C 325.958,359.813 322.625,359.479 319.5,358.5 Z"/></g>
</svg>
